<?xml version="1.0" standalone="no"?>
<!DOCTYPE svg PUBLIC "-//W3C//DTD SVG 1.1//EN" "http://www.w3.org/Graphics/SVG/1.1/DTD/svg11.dtd" >
<!--
2013-9-30: Created.
-->
<svg>
<metadata>
Created by iconfont
</metadata>
<defs>

<font id="iconfont" horiz-adv-x="1024" >
  <font-face
    font-family="iconfont"
    font-weight="500"
    font-stretch="normal"
    units-per-em="1024"
    ascent="896"
    descent="-128"
  />
    <missing-glyph />
    
    <glyph glyph-name="qiyerenzheng" unicode="&#58951;" d="M807.59666667 477.12h334.08v-57.6H807.59666667zM909.35666666 51.84000000000003l-2.88 2.88H249.83666666c-25.92 0-46.08 20.16-46.08 46.08V708.48c0 25.92 20.16 48.96 46.08 48.96h936c25.92 0 46.08-20.16 46.08-46.08v-364.8l2.88-2.88c14.4-8.64 28.8-20.16 40.32-34.56l11.52-14.4V722.88c0 48.96-40.32 89.28-90.23999999 89.28H235.43666666c-48.96 0-90.24-40.32-90.23999999-89.28V86.39999999999998c0-48.96 40.32-89.28 90.23999999-89.28h712.32l-8.64 11.52c-11.52 14.4-21.12 28.8-29.76 43.2z m0 0M807.59666667 350.4h98.87999999v-57.6H807.59666667zM807.59666667 601.9200000000001h334.08v-57.6H807.59666667zM1112.87666667 341.76c-107.52 0-192-83.52-192.00000001-191.04 0-103.68 87.36-191.04 192.00000001-191.04 107.52 0 192 83.52 191.99999999 191.04 0 106.56-87.36 191.04-191.99999999 191.04z m-2.88-307.2c-8.64-8.64-25.92-8.64-37.44 0L990.95666666 115.20000000000005c-8.64 8.64-8.64 25.92 0 34.56 8.64 8.64 25.92 8.64 37.44 0L1092.71666667 86.39999999999998l124.79999999 121.92c8.64 8.64 25.92 8.64 37.44 0 8.64-8.64 8.64-25.92 0-34.56l-144.95999999-139.2z m0 0M362.15666666 629.76c4.8 7.68 12.48 14.4 18.24 21.12 11.52 11.52 33.6 20.16 49.92000001 24.96 7.68 2.88 17.28 3.84 27.83999999 3.84h113.28000001c18.24 0 40.32-3.84 55.67999999-13.44 5.76-3.84 15.36-8.64 21.12-15.36 4.8-6.72 12.48-11.52 18.24000001-19.2l73.91999999-105.6c4.8-7.68 0-26.88-6.72-32.64h-0.95999999c-6.72-5.76-43.2-5.76-48.00000001 2.88l-52.79999999 76.8c-7.68 10.56-15.36 19.2-23.04 25.92-8.64 5.76-20.16 9.6-35.52000001 9.6H460.07666666c-14.4 0-25.92-2.88-34.56-9.6-8.64-6.72-16.32-15.36-23.99999999-25.92l-53.76000001-76.8c-5.76-7.68-38.4-8.64-45.12-2.88-3.84 2.88-5.76 6.72-6.72 11.52 0 5.76-3.84 22.08-1.92 25.92l68.16 98.88z m320.64-191.04c8.64 0 15.36-24 15.36000001-33.6v-0.96c0-9.6-6.72-33.6-15.36000001-33.6H553.19666666v-117.12H708.71666666c8.64 0 16.32-23.04 16.32-33.6v-0.96c0-9.6-7.68-34.56-16.32-34.56H321.83666666c-8.64 0-16.32 24.96-16.32 34.56V220.79999999999995c0 9.6 7.68 33.6 16.32 33.6H353.51666666v182.4c0 9.6 23.04 17.28 31.68 17.28h0.96c7.68 0 26.88-7.68 26.88000001-17.28v-182.4h75.83999999V539.52c0-6.72 21.12 11.52 29.76 11.52h0.96000001c9.6 0 32.64-8.64 32.63999999-17.28v-95.04h130.56z m0 0"  horiz-adv-x="1433" />

    
    <glyph glyph-name="jurassic_folder" unicode="&#59035;" d="M120 552h291.6l112 112H736v-224h56V720H500.4l-112-112H64v-560l56 130.6zM792 440H232L120 178.60000000000002 64 48h728l168 392z"  horiz-adv-x="1024" />

    
    <glyph glyph-name="pdftubiao" unicode="&#58954;" d="M910.9-62.5H278.3c-29.9 0-54.2 24.3-54.2 54.2v787c0 29.9 24.3 54.2 54.2 54.2h491.3c10 0 18.1-8.1 18.1-18.1v-135.6H947c10 0 18.1-8.1 18.1-18.1v-669.4c0-29.8-24.3-54.2-54.2-54.2zM278.3 796.7c-10 0-18.1-8.1-18.1-18.1v-786.9c0-10 8.1-18.1 18.1-18.1h632.6c10 0 18.1 8.1 18.1 18.1V643.1H769.5c-10 0-18.1 8.1-18.1 18.1V796.7H278.3zM947.4 643H769.9c-10 0-18.1 8.1-18.1 18.1V814.8c0 7.1 4.1 13.5 10.6 16.4 6.4 2.9 14 1.9 19.3-2.8L801.9 811c0.2-0.1 0.3-0.3 0.5-0.4l156.9-135.8c5.7-4.9 7.7-12.9 5.1-20-2.7-7.1-9.4-11.8-17-11.8zM788 679.2h111l-111 96.1v-96.1zM664.5 114.5H79.4c-11.4 0-20.7 9.3-20.7 20.7V405.4c0 11.4 9.3 20.7 20.7 20.7h585.2c11.4 0 20.7-9.3 20.7-20.7v-270.2c-0.1-11.4-9.4-20.7-20.8-20.7zM113.9 374.3h68.3c46.1 0 81.5-16 81.5-65.2 0-47.5-35.7-68.8-80.4-68.8h-27.8v-73.9h-41.6V374.3z m66.6-101.2c28.7 0 42.4 12.1 42.4 36 0 24.2-15.2 32.3-43.8 32.3h-23.6v-68.3h25zM301.3 374.3h57c63.5 0 102.8-32.9 102.8-103.1 0-70-39.3-104.8-100.6-104.8h-59.3V374.3z m54.5-174.5c38.8 0 62.9 20.8 62.9 71.4 0 50.9-24.2 70-62.9 70h-12.9v-141.3h12.9zM501.9 374.3H630v-34.6h-86.5v-54.2h73.9v-34.8h-73.9v-84.3h-41.6V374.3z"  horiz-adv-x="1024" />

    
    <glyph glyph-name="boshimao1" unicode="&#59091;" d="M1004.75448889 549.38396445L520.09187555 757.81688889a23.35971555 23.35971555 0 0 1-9.24558222 1.92284444 23.42684445 23.42684445 0 0 1-9.26833778-1.92284444L16.92103111 549.38396445c-10.21724445-4.37475555-16.98702222-15.53635555-16.98702222-27.98023112 0-12.46549333 6.76977778-23.59751111 16.98702222-27.99616L501.57226667 284.96782222a23.08551111 23.08551111 0 0 1 18.51392 0l376.81720888 162.05710223v-165.7912889c-20.19669333-10.69511111-34.23004445-33.96266667-34.23004444-61.01560888 0-27.05863111 14.03335111-50.31936 34.23004444-61.01560889v-57.83438223h49.63214223v57.82300445c20.20807111 10.69511111 34.25393778 33.96266667 34.25393777 61.02698667s-14.04586667 50.33187555-34.25393777 61.02698666V468.36963555l58.21326222 25.03793778c10.21269333 4.39751111 16.98133333 15.53635555 16.98133333 27.99616 0 12.44387555-6.76977778 23.60547555-16.98133333 27.98023112zM510.84629333 243.13514667000004a54.5792 54.5792 0 0 0-21.65191111 4.50332444l-302.13688889 129.95356444v-179.42869333c0-146.95765333 220.34204445-191.07384889 289.23221334-191.07384889h69.05514666c51.60732445 0 289.25496889 44.11619555 289.25496889 191.07384889V377.58634667L532.45269333 247.63733333000005a54.34481778 54.34481778 0 0 0-21.61208888-4.50332444z"  horiz-adv-x="1024" />

    
    <glyph glyph-name="xueshimao" unicode="&#58953;" d="M1169.52669061 574.9655798900001L684.83733924 396.86526435c-30.20569793-11.66764361-23.81742197-11.59532336-54.26418604 0.16874752l-253.91589285 92.08760175 283.73588333 121.25671079c12.46316474 5.32758086 18.5139473 20.44248293 13.52385983 33.74938366l-0.43392068 1.20533477c-4.99008746 13.3068999-19.14072171 19.7674953-31.57977942 14.41580741L306.12105069 514.69882452c-1.92853647-0.81962814-2.94101752-1.71157571-3.30261878-2.67584435-44.2599049-36.64218713-57.13288413-93.22061709-58.86856604-156.50070942 15.01847561-10.07660138 25.02275674-27.93966806 25.02275676-48.30983075 0-18.99608121-8.67841287-35.82255899-22.08173923-46.16433435 7.59361074-118.14694657 19.43000189-236.94477457-77.91286131-281.63860016-26.66201221 9.52214722-44.42865161 19.02018823-78.87712912 47.51430963 69.62015588 88.80908999 93.31704355 163.75682676 101.6097498 229.351163-17.42914517 9.40161374-29.41017682 28.68697512-29.41017683 50.93746188 0 24.27544885 14.22295449 44.98310577 34.18330354 53.20349094 0.69909467 64.5818552 4.04992584 120.26833676 55.73469478 173.80932192L135.49381323 576.60483535C105.07115537 588.34479923 104.87830164 607.3890936600001 135.05989255 619.03263108L626.40269387 797.18115903c30.20569793 11.66764361 23.81742197 11.59532336 54.24007984-0.1687467l488.42589002-179.54671729c30.44676489-11.7881771 30.66372483-30.80836533 0.45802689-42.47600894z m-169.51832831-315.24334332c0-15.74167648-11.40247046-32.01370011-26.15577209-45.15185247-198.8802919-115.18182202-446.11862778-116.38715762-624.99035742-10.6792696-10.1248146 4.04992584-17.23629227 16.89879803-21.31032431 30.06105744 12.46316474 15.33186282 19.83981555 35.87077304 19.83981555 58.41053914 0 25.095077-8.87126661 47.68305634-24.95043649 63.40062663v83.77078931l307.36045157-111.37296314c30.44676489-11.7881771 24.29955588-11.86049735 54.48114596-0.1687467l315.72547723 116.19430389v-184.4644845z"  horiz-adv-x="1345" />

    
    <glyph glyph-name="shichangguanli" unicode="&#59108;" d="M869.7 350.4c-12.1 0-21.6-9.6-22.3-21.7-11.6-199.9-182-357.2-387-347.4-185.8 8.7-339.3 159.9-350.9 345.5C96.6 534.2 255 707.7 456.7 719.4c12.1 0.7 21.7 10.2 21.7 22.3 0 12.6-10.5 23.1-23.1 22.4C227.6 751.7 48.8 555.3 65 321c12.8-185 181.8-362 366.2-382.3 242.1-26.7 448.1 155.2 461 388.7 0.7 12.5-9.8 23-22.5 23z m-626-20c-0.9 11.3-10.9 19.7-22.2 19.7-13.2 0-23.5-11.5-22.4-24.6 11.8-135 119.4-242.6 254.4-254.3 13.1-1.1 24.5 9.2 24.5 22.4 0 11.4-8.5 21.2-19.8 22.2-114.1 9.4-205 100.5-214.5 214.6zM601.6 832h-44.8v-403.2H960v44.8C960 671.5 799.5 832 601.6 832z m0-358.4V787.2c173.2 0 313.6-140.4 313.6-313.6H601.6z"  horiz-adv-x="1024" />

    
    <glyph glyph-name="shoucang1" unicode="&#59034;" d="M260.247655 250.349425L953.40657 506.26675l37.534609-2.595833-10.00957-64.952128-73.819943-98.738909-91.33541-107.816642 6.256621-148.100683 12.508124-120.821403-42.536835-46.760822-85.083909 7.792617-186.42889 84.44391-108.850879-45.475705-163.900956-55.859036-57.553751 66.257725 13.76252 194.861505zM772.450944-127.99697900000001c-14.417877 0-30.61239 4.295667-45.649786 12.098524l-214.491527 111.385272-215.822723-111.206072c-13.66524-7.562218-29.317034-11.530206-45.270907-11.530206-20.725699-0.08192-40.929159 6.78398-57.59983 19.578822-30.197671 23.521211-45.680505 64.28141-38.538126 101.385941l44.14451 237.751618L30.032654 395.209157C3.900251 422.703476-6.12468 462.572799 3.721051 499.825809l0.343039 1.208316c12.303324 38.271887 42.808194 65.090368 79.810325 70.235953l235.058507 44.374909L424.43533 838.144171C441.3876 873.369667 475.855339 896 512.314751 896c38.026128 0 73.389863-23.485371 88.21734-58.495827l105.15425-221.787506 235.099466-42.675074c37.30421-5.606383 67.972919-33.418141 78.340889-71.055151 11.601886-36.981651 2.124794-77.593371-24.494008-104.95969l-0.583678-0.609278-168.708622-164.950554 42.639234-238.176577a104.222413 104.222413 0 0 0-38.092688-100.536023c-16.266192-13.59868-36.556692-20.925378-57.43599-20.751299z m-260.033793 188.266964l239.323454-124.267153c7.039979-3.686389 15.139795-5.990382 20.674499-5.990382 8.540135 0 16.465871 2.728952 22.271934 7.767017l1.095677 0.921597c13.59868 10.603489 20.22394 27.427759 17.254349 43.91411l-48.168818 269.393126 190.504398 186.28041a46.340983 46.340983 0 0 1 10.490849 46.146424l-0.517118 1.704955c-4.188148 15.702994-16.99835 27.304879-32.557984 29.475753l-1.095677 0.1792-263.587063 47.851378-118.61469 250.198302c-5.780463 13.982679-21.391297 24.125369-37.17621 24.125369-15.513554 0-30.34103-10.07613-37.857168-25.646004l-117.872293-248.575267-264.984818-49.986412c-16.097233-2.088954-28.595116-13.194201-34.375578-30.50487-4.101108-15.820753 0.752638-34.872217 11.960284-46.755702l190.714318-184.534496-50.052973-269.531365c-3.005431-15.574994 4.101108-33.520541 17.254349-43.780991 6.594541-5.140465 15.134675-7.976936 24.084409-7.976936 6.90686 0 13.53212 1.658875 19.235784 4.853745l0.824317 0.501759 241.171769 124.236433z m0 0"  horiz-adv-x="1024" />

    
    <glyph glyph-name="tiaoguofenxiang" unicode="&#59255;" d="M564.5 61.7l1 0.8c-17.5 0-31.7 14.2-31.7 31.7V236.5l-1.1-0.1c-27.4-2.4-70.3-7.6-118.7-19-49.1-11.6-94.4-27.2-134.6-46.3-47.4-22.6-90.3-52.4-124.2-86.2-1.2-1.2-2.3-2.4-3.5-3.7l-0.1-0.1c-7.8-8.3-16.7-17.8-28.3-17.8-7.8 0-14.6 2.7-19.3 7.7-3.2 3.4-6.9 9.4-6.4 19.1 0.6 10.6 2 17.2 2.9 21.6l0.1 0.4c0.2 0.9 0.3 1.7 0.5 2.4v0.2c2.1 12.8 11.1 59.4 39.3 122.9 18.1 40.7 40.3 78.5 66.2 112.3C239 392 277 428.2 319.7 457.2c9.6 7.2 96.8 70.4 213.2 90.4l0.8 0.1v127c0 17.5 14.2 31.7 31.7 31.7 7.7 0 15.2-2.8 21-7.9l329.2-289.8c13.1-11.6 14.4-31.6 2.9-44.8-0.9-1-1.8-1.9-2.8-2.8L586.5 70.4c-5.8-5.1-13.3-7.9-21-7.9l1-1-2 0.2z m5.2 239.9h0.3c15.5-2.2 27.2-15.7 27.2-31.4v-105.6L846.7 385 597.2 604.6v-84.5c0-16.3-12.3-29.9-28.5-31.6-116.4-11.8-210.4-81.7-211.3-82.4-0.4-0.3-0.9-0.7-1.4-1-37.3-25.3-70.6-56.9-99-94-22.8-29.9-42.6-63.3-58.6-99.5-2.1-4.6-4.1-9.4-6-14.1l-1.2-2.9 2.6 1.7c18.5 11.6 38.3 22.5 58.9 32.3 44.4 21.1 94.2 38.2 147.8 50.8 90.6 21.2 161.5 22.3 164.5 22.4h4.4l0.3-0.2z"  horiz-adv-x="1024" />

    
    <glyph glyph-name="querenfuwu" unicode="&#58952;" d="M212.992 369.664 212.992 369.664 212.992 369.664 215.04 369.664 212.992 369.664ZM108.544 353.28 108.544 353.28l61.44 0L169.984 723.968c0 20.48 8.192 38.912 22.528 53.248C204.8 791.552 225.28 799.744 245.76 799.744l528.384 0c20.48 0 38.912-8.192 53.248-22.528l0 0c12.288-14.336 20.48-32.768 20.48-53.248l0-370.688 61.44 0c18.432 0 32.768-14.336 32.768-32.768l0 0L942.08 15.36c0-18.432-14.336-32.768-32.768-32.768l0 0L108.544-17.408c-18.432 0-32.768 14.336-32.768 32.768l0 0L75.776 318.464C75.776 336.896 90.112 353.28 108.544 353.28L108.544 353.28zM208.896 353.28 208.896 353.28l94.208 0c18.432 0 32.768-14.336 32.768-30.72 6.144-40.96 28.672-77.824 57.344-102.4 30.72-26.624 69.632-43.008 112.64-43.008 43.008 0 81.92 16.384 112.64 43.008 30.72 26.624 53.248 63.488 59.392 104.448 2.048 16.384 16.384 28.672 32.768 28.672l94.208 0L804.864 723.968c0 10.24-4.096 18.432-10.24 24.576l0 2.048c-6.144 6.144-16.384 10.24-26.624 10.24L245.76 760.832c-10.24 0-18.432-4.096-24.576-10.24-6.144-6.144-10.24-16.384-10.24-26.624L210.944 353.28 208.896 353.28zM319.488 527.36 319.488 527.36l133.12-133.12c12.288-12.288 34.816-12.288 47.104 0l0 0 239.616 239.616c12.288 12.288 12.288 34.816 0 47.104-12.288 12.288-34.816 12.288-47.104 0L477.184 465.92 368.64 574.464c-12.288 12.288-34.816 12.288-47.104 0C307.2 562.176 307.2 539.648 319.488 527.36L319.488 527.36zM276.48 285.696 276.48 285.696 141.312 285.696l0-237.568 735.232 0L876.544 285.696l-135.168 0c-12.288-47.104-38.912-88.064-75.776-116.736-40.96-36.864-96.256-57.344-155.648-57.344-59.392 0-114.688 20.48-157.696 57.344C317.44 199.68 290.816 238.592 276.48 285.696L276.48 285.696z"  horiz-adv-x="1024" />

    
    <glyph glyph-name="24" unicode="&#59055;" d="M930.6672 667.989606L796.091945 802.6672c-16.271837 16.271837-37.865281 25.175295-60.789127 25.175295-23.026184 0-44.619628-8.903458-60.789126-25.175295L110.8327 239.088547c-5.321607-5.321607-8.801119-12.280632-9.824505-19.751349L68.464521-20.646812c-1.43274-10.745553 2.149111-21.491105 9.824506-29.064161 6.54967-6.54967 15.35079-10.131521 24.458924-10.131522 1.535079 0 3.070158 0.102339 4.605237 0.307016l239.98401 32.543674c7.470718 1.023386 14.429742 4.502898 19.751349 9.824505l563.476314 563.476315c16.271837 16.271837 25.175295 37.865281 25.175295 60.789126 0.102339 23.026184-8.801119 44.619628-25.072956 60.891465zM326.460124 40.039976l-183.390766-24.868279 24.868279 183.390766 399.325205 399.325204 158.522487-158.522486L326.460124 40.039976z m555.289226 555.186888L774.703178 488.180692 616.28303 646.703178 723.226864 753.74935c4.298221 4.298221 9.312812 4.912253 11.973616 4.912253s7.675395-0.614032 11.973616-4.912253l134.575254-134.575254c4.298221-4.298221 4.912253-9.312812 4.912253-11.973616 0-2.660804-0.614032-7.675395-4.912253-11.973616z"  horiz-adv-x="1024" />

    
    <glyph glyph-name="time" unicode="&#58975;" d="M512 832C264.96 832 64 631.04 64 384s200.96-448 448-448 448 200.96 448 448S759.04 832 512 832zM512 0.288c-211.584 0-383.712 172.16-383.712 383.712C128.288 595.584 300.416 767.712 512 767.712c211.552 0 383.712-172.128 383.712-383.712C895.712 172.448 723.552 0.288 512 0.288zM671.968 384 512 384 512 607.936c0 17.76-14.24 32.128-32 32.128s-32-14.4-32-32.128L448 352c0-17.76 14.272-32 32-32l191.968 0c17.76 0 32.128 14.24 32.128 32S689.728 384 671.968 384z"  horiz-adv-x="1024" />

    
    <glyph glyph-name="wenjian1" unicode="&#58947;" d="M147.91111147 869.45185173h546.13333333l182.04444373-182.0444448v-788.85925866H147.91111147V869.45185173z m60.6814816-60.6814816v-849.54074026h606.81481386V663.13481493L669.77185173 808.77037013H208.59259307zM754.7259264 201.95555520000005v-60.6814816H269.2740736v60.6814816h485.4518528z m0 182.0444448v-60.6814816H269.2740736V384h485.4518528z m-121.3629632 242.7259264V869.45185173h-60.6814816v-303.40740693h303.40740693V626.7259263999999h-242.72592533z"  horiz-adv-x="1024" />

    
    <glyph glyph-name="genzong1" unicode="&#58937;" d="M787.2 627.2H307.2v-96h473.6c32 0 64-25.6 64-64 0-32-32-64-64-64H179.2C89.6 403.2 19.2 332.79999999999995 19.2 243.20000000000005s70.4-160 160-160h697.6v96H179.2c-32 0-64 25.6-64 64 0 32 32 64 64 64h601.6c89.6 0 160 70.4 160 160 6.4 89.6-70.4 160-153.6 160zM249.6 665.6v-134.4H115.2V665.6h134.4m0 96H115.2C64 761.6 19.2 716.8 19.2 665.6v-134.4c0-51.2 44.8-96 96-96h134.4c51.2 0 96 44.8 96 96V665.6c0 51.2-38.4 96-96 96zM791.36 137.08799999999997l90.496 90.496 90.496-90.496-90.496-90.496z"  horiz-adv-x="1024" />

    
    <glyph glyph-name="yonghu1" unicode="&#58945;" d="M943.630983 29.605229v-5.631572a172.609624 172.609624 0 0 0-12.799026-60.490162c-15.634502-37.294391-44.10741-56.315711-67.578853-68.248341-21.344836-11.263142-47.651756-18.312452-78.251272-21.817416V-128H235.116323v2.126607c-29.851265 2.796095-56.197566 10.514892-78.251271 22.486903-31.977872 16.894713-55.488697 42.217093-68.287723 73.879912-14.216763 35.207165-11.381287 110.465434-1.417738 141.419385l2.126607 7.758178c2.874858 10.554273 6.419203 23.944023 14.965014 36.585522 53.874051 105.070152 152.485618 183.833385 267.440557 220.221998-22.998864 12.602117-45.013187 27.173315-63.286258 45.761438a290.203131 290.203131 0 0 0-61.199031 90.065757 275.159353 275.159353 0 0 0 0 212.46382A270.551704 270.551704 0 0 0 308.405511 814.835276 293.708095 293.708095 0 0 0 399.455808 875.364821a290.912 290.912 0 0 0 214.826717 0c33.434992-14.098619 65.452246-34.498296 91.050297-60.529545a282.169281 282.169281 0 0 0 61.199032-90.065756c14.216763-33.750045 21.305454-70.335567 21.305454-106.251601a272.520785 272.520785 0 0 0-21.305454-106.212219c-14.256145-33.080558-34.892112-64.743377-61.199032-90.065757-17.131003-16.934095-37.570062-30.95395-58.954279-43.280396 74.234347-21.896179 141.340621-61.080887 193.403117-114.324832 36.979338-38.00326 56.197566-68.287723 75.415796-105.542732 7.088691-11.263142 14.216763-25.361761 18.469978-40.129867 11.381287-30.245081 10.7118-66.830603 9.963549-89.356887zM709.625418 534.792603c10.633036 26.031248 16.343371 54.897973 16.343371 83.055829 0 28.118474-5.710334 56.985199-16.343371 83.016447a206.12338 206.12338 0 0 1-47.691137 70.335567 230.618745 230.618745 0 0 1-71.123199 47.139794 228.255848 228.255848 0 0 1-83.961606 16.185845c-28.433527 0-57.615305-5.631571-83.922224-16.185845a207.541118 207.541118 0 0 1-71.1232-47.139794 229.082862 229.082862 0 0 1-47.691137-70.335567 222.269843 222.269843 0 0 1-16.343371-83.016447c0-28.157856 5.710334-57.02458 16.343371-83.055829a206.674722 206.674722 0 0 1 47.691137-70.335567 230.146166 230.146166 0 0 1 71.1232-47.139795 223.490673 223.490673 0 0 1 167.88383 0 209.077001 209.077001 0 0 1 71.123199 47.139795c19.927098 19.690808 36.270469 44.304318 47.691137 70.335567z m165.717842-436.230164l-0.708869 2.126607c-2.835476 9.845404-7.836942 18.981939-13.507895 28.827343-18.50936 35.876652-34.143861 60.529544-66.161115 92.901233-71.123199 73.171043-174.972521 115.388136-285.241047 115.388136-147.956733-0.708869-286.698167-83.725316-352.859282-211.794333-4.962084-7.758178-6.379822-14.768106-9.215299-22.526284l-2.874858-9.136535c-7.088691-23.235154-7.088691-83.016447 0-99.911161 7.836942-18.312452 22.053705-33.080558 41.271934-43.634831 19.927098-10.554273 46.234018-16.185844 76.833534-16.894713l23.471443-0.708869 470.925368 0.708869c32.726123 0.708869 58.324174 5.631571 76.833534 15.476975 22.053705 11.972011 33.434992 22.526285 39.814814 38.00326a106.330364 106.330364 0 0 1 7.836941 38.712129v5.631571c0.708869 17.564201 0.708869 47.848664-6.419203 66.830603z"  horiz-adv-x="1024" />

    
    <glyph glyph-name="shoucang" unicode="&#58946;" d="M773.461-109.431c-14.404 0-30.583 4.13-45.602 11.639L513.57 9.387 297.95-97.621c-13.653-7.27-29.287-11.094-45.227-11.094a96.256 96.256 0 0 0-57.549 18.842c-30.173 22.63-45.636 61.85-38.502 97.553l44.1 228.762-169.028 157.56A104.073 104.073 0 0 0 5.461 494.66l0.342 1.16c12.288 36.83 42.769 62.635 79.735 67.585l234.837 42.7L425.78 820.19c16.93 33.894 51.37 55.671 87.791 55.671 37.99 0 73.319-22.596 88.132-56.286l105.063-213.401 234.871-41.063a95.676 95.676 0 0 0 78.268-68.369 98.987 98.987 0 0 0-24.474-101l-0.58-0.58-168.55-158.72 42.598-229.172c6.86-36.659-7.714-73.66-38.059-96.733a90.283 90.283 0 0 0-57.378-19.968zM513.673 71.714l239.104-119.569c7.031-3.55 15.12-5.768 20.65-5.768 8.534 0 16.452 2.628 22.255 7.475l1.092 0.887c13.585 10.206 20.207 26.385 17.238 42.257l-48.128 259.209L956.21 435.439c11.674 11.844 15.667 28.808 10.48 44.407l-0.513 1.639a39.185 39.185 0 0 1-32.529 28.365l-1.092 0.17-263.339 46.046L550.708 796.81c-5.77 13.448-21.368 23.21-37.138 23.21-15.496 0-30.31-9.694-37.82-24.678L357.99 556.169 93.252 508.075c-16.077-2.014-28.57-12.698-34.338-29.355-4.096-15.223 0.751-33.553 11.947-44.988l190.532-177.561-50.005-259.345c-3.004-14.985 4.096-32.256 17.237-42.12 6.588-4.95 15.121-7.68 24.064-7.68 6.895 0 13.517 1.603 19.217 4.675l0.82 0.478 240.947 119.535z"  horiz-adv-x="1024" />

    
    <glyph glyph-name="yinyongcopy" unicode="&#58949;" d="M773.12 896c-64.284444 0-129.137778-25.031111-178.460444-74.695111L429.511111 652.8a40.846222 40.846222 0 0 1 0-56.092444 39.253333 39.253333 0 0 1 55.352889 0l165.148444 168.106666h0.512a170.211556 170.211556 0 0 0 122.481778 51.370667c96.312889 0 173.511111-78.506667 173.511111-176.64 0-45.112889-16.725333-90.510222-50.460444-124.984889l-179.655111-183.011556a172.657778 172.657778 0 0 0-121.799111-50.289777A174.023111 174.023111 0 0 0 428.373333 407.665778a38.798222 38.798222 0 0 1-48.753777 26.794666 40.049778 40.049778 0 0 1-25.998223-49.379555c6.087111-19.740444 14.449778-39.424 25.486223-57.799111v-0.341334a250.538667 250.538667 0 0 1 215.552-124.586666c63.715556 0 127.431111 24.234667 176.241777 72.760889l179.996445 183.296A258.275556 258.275556 0 0 1 1024 639.544889C1024 781.425778 912.156444 896 773.12 896zM539.534222 171.349333L374.328889 2.844444c-67.015111-68.380444-179.086222-68.608-246.101333-0.227555V2.844444c-67.128889 68.266667-67.128889 182.044444 0 250.311112l177.891555 181.816888a173.681778 173.681778 0 0 0 246.215111 0v-0.512c10.524444-10.467556 18.887111-22.072889 26.055111-34.531555 7.736889-12.401778 13.255111-25.941333 17.237334-39.424a38.513778 38.513778 0 0 1 48.128-27.136 40.163556 40.163556 0 0 1 26.737777 49.436444 308.337778 308.337778 0 0 1-24.462222 57.799111 311.182222 311.182222 0 0 1-38.229333 50.289778 250.652444 250.652444 0 0 1-357.091556 0L72.817778 309.475556c-96.995556-99.100444-96.995556-263.68 0-363.292445l2.730666-2.048c97.507556-96.711111 256.227556-95.914667 353.28 1.479111v0.568889l0.455112 0.568889 165.774222 168.220444a40.504889 40.504889 0 0 1-0.568889 56.433778 38.627556 38.627556 0 0 1-54.897778 0z"  horiz-adv-x="1024" />

    
    <glyph glyph-name="comment" unicode="&#59739;" d="M853.333333 42.666667l-170.666667 0c-25.6 0-42.666667 17.066667-42.666667 42.666667s17.066667 42.666667 42.666667 42.666667l170.666667 0c46.933333 0 85.333333 38.4 85.333333 85.333333L938.666667 725.333333c0 46.933333-38.4 85.333333-85.333333 85.333333L170.666667 810.666667C123.733333 810.666667 85.333333 772.266667 85.333333 725.333333l0-512c0-46.933333 38.4-85.333333 85.333333-85.333333l170.666667 0c25.6 0 42.666667-17.066667 42.666667-42.666667s-17.066667-42.666667-42.666667-42.666667L170.666667 42.666667c-93.866667 0-170.666667 76.8-170.666667 170.666667L0 725.333333c0 93.866667 76.8 170.666667 170.666667 170.666667l682.666667 0c93.866667 0 170.666667-76.8 170.666667-170.666667l0-512C1024 119.466667 947.2 42.666667 853.333333 42.666667zM512-128c-12.8 0-21.333333 4.266667-29.866667 12.8l-170.666667 170.666667c-17.066667 17.066667-17.066667 42.666667 0 59.733333s42.666667 17.066667 59.733333 0l140.8-140.8 140.8 140.8c17.066667 17.066667 42.666667 17.066667 59.733333 0s17.066667-42.666667 0-59.733333l-170.666667-170.666667C533.333333-123.733333 524.8-128 512-128zM768 597.333333 256 597.333333C230.4 597.333333 213.333333 614.4 213.333333 640s17.066667 42.666667 42.666667 42.666667l512 0c25.6 0 42.666667-17.066667 42.666667-42.666667S793.6 597.333333 768 597.333333zM554.666667 426.666667 256 426.666667c-25.6 0-42.666667 17.066667-42.666667 42.666667s17.066667 42.666667 42.666667 42.666667l298.666667 0c25.6 0 42.666667-17.066667 42.666667-42.666667S580.266667 426.666667 554.666667 426.666667zM682.666667 256 256 256c-25.6 0-42.666667 17.066667-42.666667 42.666667s17.066667 42.666667 42.666667 42.666667l426.666667 0c25.6 0 42.666667-17.066667 42.666667-42.666667S708.266667 256 682.666667 256z"  horiz-adv-x="1024" />

    
    <glyph glyph-name="fenxiang" unicode="&#58924;" d="M768.911766 192.129064c-35.656081 0-67.926042-14.722306-91.162256-38.313607L368.497167 325.578426c9.060353 17.575284 14.691607 37.195134 14.691607 58.291614 0 12.582573-2.367931 24.489764-5.758144 35.948747l304.699654 189.211363c22.698978-20.422122 52.404534-33.194006 85.248569-33.194006 70.612221 0 128.037095 57.424874 128.037095 128.043235 0 70.613244-57.424874 128.039141-128.037095 128.039141-70.618361 0-128.044258-57.425897-128.044258-128.039141 0-14.564717 2.979868-28.362978 7.458879-41.424458l-301.916261-187.451276c-23.14821 22.794146-54.804187 36.94033-89.762373 36.94033-70.612221 0-128.038118-57.425897-128.038118-128.038118 0-70.614268 57.424874-128.045281 128.038118-128.045281 25.673729 0 49.523927 7.746428 69.594031 20.807908l321.318146-178.455391c-3.044336-10.946306-5.187139-22.214954-5.187139-34.092469 0-70.614268 57.423851-128.039141 128.042211-128.039141 70.614268 0 128.039141 57.424874 128.039141 128.039141C896.921231 134.73796 839.559802 192.129064 768.911766 192.129064L768.911766 192.129064zM767.407506 767.897414c35.310204 0 64.021106-28.714995 64.021106-64.019059 0-35.30918-28.710902-64.023152-64.021106-64.023152-35.304064 0-64.019059 28.714995-64.019059 64.023152C703.388447 739.183442 732.103442 767.897414 767.407506 767.897414L767.407506 767.897414zM191.160249 383.87004c0 35.310204 28.716019 64.020082 64.024176 64.020082 35.304064 0 64.019059-28.709879 64.019059-64.020082 0-35.305087-28.714995-64.020082-64.019059-64.020082C219.876268 319.849958 191.160249 348.564953 191.160249 383.87004L191.160249 383.87004zM768.911766 0.070864c-35.304064 0-64.019059 28.710902-64.019059 64.019059 0 35.304064 28.714995 64.019059 64.019059 64.019059 35.310204 0 64.019059-28.714995 64.019059-64.019059C832.930825 28.781766 804.22197 0.070864 768.911766 0.070864L768.911766 0.070864zM768.911766 0.070864"  horiz-adv-x="1024" />

    
    <glyph glyph-name="tijiao" unicode="&#58957;" d="M898.433097-127.236675 664.474096-127.236675 664.474096-91.74208 664.474096-66.934029 868.281774-66.934029 868.281774 834.934029 461.048081 834.934029 461.048081 593.341782C461.048081 576.689855 447.548684 563.190458 430.896757 563.190458 430.320066 563.190458 429.747954 563.210305 429.179277 563.242365 428.6106 563.210305 428.038488 563.190458 427.461796 563.190458L155.718226 563.190458 155.718226-66.934029 359.144242-66.934029 359.144242-91.74208 359.144242-127.236675 125.566903-127.236675C108.914976-127.236675 95.41558-113.737279 95.41558-97.085352L95.41558 606.699963C95.41558 614.099632 98.085689 620.872993 102.509155 626.119705 104.538454 629.298952 107.011244 632.349579 109.913786 635.163193L363.910059 881.34493C369.271269 889.69761 378.633446 895.236675 389.295565 895.236675L898.433097 895.236675C915.085024 895.236675 928.58442 881.737279 928.58442 865.085352L928.58442-97.085352C928.58442-113.737279 915.085024-127.236675 898.433097-127.236675ZM400.745434 833.068082 184.518464 623.493105 400.745434 623.493105 400.745434 833.068082ZM249.718983 207.481941 249.59647 280.338224 799.453937 280.381352 799.576832 207.524687 249.718983 207.481941ZM249.59647 487.199201 799.453937 487.242329 799.576832 414.385664 249.718983 414.342918 249.59647 487.199201ZM249.718983 310.912429 249.59647 383.768713 799.453937 383.81184 799.576832 310.955176 249.718983 310.912429ZM515.24413 165.304438 609.675402 70.846068 549.946013 70.846068 549.978072-54.046056 477.121407-54.083459 477.089348 70.846068 420.812857 70.846068 515.24413 165.304438Z"  horiz-adv-x="1024" />

    
    <glyph glyph-name="liucheng" unicode="&#58956;" d="M510.207177 609.639752c61.620491 0 111.573808 49.953317 111.573808 111.573808 0 61.620491-49.953317 111.573808-111.573808 111.573808-61.620491 0-111.572784-49.953317-111.572784-111.573808 0-61.620491 49.953317-111.573808 111.572784-111.573808z m0 167.218904c30.682772 0 55.64612-24.962324 55.646119-55.64612 0-30.682772-24.962324-55.64612-55.646119-55.646119-30.682772 0-55.645096 24.962324-55.645096 55.646119s24.962324 55.64612 55.645096 55.64612zM174.697362 313.436895c-61.620491 0-111.573808-49.953317-111.573808-111.573808 0-61.620491 49.953317-111.573808 111.573808-111.573807S286.27117 140.242597 286.27117 201.863087c-0.001024 61.620491-49.953317 111.573808-111.573808 111.573808z m0-167.218903c-30.682772 0-55.64612 24.962324-55.64612 55.646119 0 30.682772 24.962324 55.64612 55.64612 55.64612s55.64612-24.962324 55.64612-55.64612c-0.001024-30.683795-24.963348-55.64612-55.64612-55.646119zM845.950438 313.436895c-61.620491 0-111.573808-49.953317-111.573808-111.573808 0-61.620491 49.953317-111.573808 111.573808-111.573807s111.573808 49.953317 111.573807 111.573807c0 61.620491-49.953317 111.573808-111.573807 111.573808z m0-167.218903c-30.683795 0-55.64612 24.962324-55.64612 55.646119 0 30.682772 24.962324 55.64612 55.64612 55.64612 30.682772 0 55.64612-24.962324 55.646119-55.64612s-24.963348-55.64612-55.646119-55.646119zM509.424928 16.384213c-79.713568 0-157.405987 27.895756-218.755147 78.525861l-35.610732-43.119906c71.35764-58.904123 161.694018-91.333643 254.364856-91.333643 93.463324 0 184.400723 32.934295 256.044027 92.726127l-35.82882 42.92844c-61.620491-51.408258-139.818708-79.726879-220.214184-79.726879zM853.375654 360.334938h55.927688c0 154.825796-90.704977 297.157118-231.098085 362.601821l-23.622058-50.684371c120.758059-56.310621 198.792455-178.734542 198.792455-311.91745zM364.266658 672.252388l-23.622058 50.684371c-140.379797-65.444702-231.084775-207.777049-231.084775-362.601821h55.927688c0 133.182908 78.034396 255.621162 198.779145 311.91745z"  horiz-adv-x="1024" />

    
    <glyph glyph-name="tishi" unicode="&#58985;" d="M997.64736 76.8512l0 0.13824L577.84832 804.10112l-0.07168 0c-5.25312 19.3536-29.25056 33.87392-58.07104 33.87392-29.0304 0-52.94592-14.86848-57.99424-34.432L32.0256 59.392l0.35328-0.49152c-9.82016-9.74848-7.92576-32.89088 5.39648-54.49216 13.39904-22.02624 33.59232-34.29888 46.63808-29.24544l0.49152-0.768 869.75488 0 0.49152 1.11616c14.52032-2.24256 32.39936 10.52672 43.55072 33.24928C1011.74272 34.91328 1010.90304 64.36864 997.64736 76.8512L997.64736 76.8512zM458.83904 575.47776c0 32.18944 26.15808 58.27584 58.27584 58.27584 32.26112 0 58.28096-26.0864 58.28096-58.27584l0-300.36992c0-32.11264-26.01984-58.27584-58.28096-58.27584-32.11776 0-58.27584 26.15808-58.27584 58.27584L458.83904 575.47776 458.83904 575.47776zM517.12 51.18464c-34.9952 0-63.39584 28.40576-63.39584 63.46752 0 35.00032 28.40064 63.26272 63.39584 63.26272 34.9952 0 63.39072-28.26752 63.39072-63.26272C580.51072 79.66208 552.1152 51.18464 517.12 51.18464L517.12 51.18464z"  horiz-adv-x="1024" />

    
    <glyph glyph-name="xinbaniconshangchuan-" unicode="&#58939;" d="M973.40175762 520.67492386v80.26137244c0 106.15213868-85.43952592 191.59166461-191.59166339 191.5916646h-36.247072V821.00780206c0 20.71261275-18.12353539 38.83614815-38.83614815 38.83614815s-41.42522429-18.12353539-41.42522429-38.83614815v-25.89076503H344.25615762V821.00780206c0 20.71261275-18.12353539 38.83614815-38.83614815 38.83614815s-38.83614815-18.12353539-38.83614814-38.83614815v-25.89076503H230.33679053c-106.15213868 0-191.59166461-85.43952592-191.5916646-191.59166459V106.42267614000002c0-106.15213868 85.43952592-191.59166461 191.5916646-191.59166339h535.93884445c113.91936831 0 204.53704651 93.20675555 204.5370465 204.5370465V518.08584651c2.58907614 0 2.58907614 2.58907614 2.58907614 2.58907735zM230.33679053 717.44474074h36.2470708v-36.24707201c0-20.71261275 18.12353539-38.83614815 38.83614814-38.83614815s38.83614815 18.12353539 38.83614815 38.83614815V717.44474074h321.04549217v-36.24707201c0-20.71261275 18.12353539-38.83614815 38.83614815-38.83614815s38.83614815 18.12353539 38.83614815 38.83614815V717.44474074h36.2470708c62.13783703 0 113.91936831-51.78153127 113.9193683-113.9193683v-44.01430044h-776.72296296v44.01430044c0 62.13783703 51.78153127 113.91936831 113.9193683 113.9193683z m535.93884445-722.35235556H230.33679053c-62.13783703 0-113.91936831 51.78153127-113.9193683 113.91936831V481.83877571h776.72296296V121.95713538999996c2.58907614-69.90506667-56.95968355-126.86475022-126.86475021-126.86475021zM603.16381276 295.4252646h-196.76981809c-20.71261275 0-38.83614815-18.12353539-38.83614816-38.83614815s18.12353539-38.83614815 38.83614816-38.83614815h196.76981809c20.71261275 0 38.83614815 18.12353539 38.83614814 38.83614815s-18.12353539 38.83614815-38.83614814 38.83614815z"  horiz-adv-x="1024" />

    
    <glyph glyph-name="caidan2" unicode="&#58986;" d="M0 896h1365.333333v-62.060606H0zM620.606061 551.563636h744.727272v-62.060606H620.606061zM620.606061 241.260606h744.727272v-62.060606H620.606061zM0-65.939394h1365.333333v-62.060606H0zM45.304242 494.467879v-259.413334a26.065455 26.065455 0 0 1 39.098182-22.341818L310.30303 343.04a26.065455 26.065455 0 0 1 0 44.683636L84.402424 516.809697a26.065455 26.065455 0 0 1-39.098182-22.341818z"  horiz-adv-x="1365" />

    
    <glyph glyph-name="dengdai" unicode="&#58942;" d="M512 883.2C236.8 883.2 12.8 659.2 12.8 384s224-499.2 499.2-499.2 499.2 224 499.2 499.2S787.2 883.2 512 883.2zM249.6 300.79999999999995c-44.8 0-76.8 38.4-76.8 83.2S211.2 467.2 256 467.2c44.8 0 83.2-38.4 83.2-83.2s-44.8-83.2-89.6-83.2z m262.4 0c-44.8 0-83.2 38.4-83.2 83.2S467.2 467.2 512 467.2s83.2-38.4 83.2-83.2S556.8 300.79999999999995 512 300.79999999999995z m262.4 0c-44.8 0-83.2 38.4-83.2 83.2 0 44.8 38.4 83.2 83.2 83.2 44.8 0 83.2-38.4 83.2-83.2-6.4-44.8-38.4-83.2-83.2-83.2z"  horiz-adv-x="1024" />

    
    <glyph glyph-name="jia" unicode="&#58934;" d="M704 332l-160 0 0 160c0 17.664-14.304 32-32 32-17.664 0-32-14.336-32-32l0-160-160 0c-17.664 0-32-14.336-32-32 0-17.696 14.336-32 32-32l160 0 0-160c0-17.696 14.336-32 32-32 17.696 0 32 14.304 32 32l0 160 160 0c17.696 0 32 14.304 32 32C736 317.664 721.696 332 704 332zM896 812 128 812C57.312 812 0 754.688 0 684l0-768c0-70.688 57.312-128 128-128l768 0c70.688 0 128 57.312 128 128L1024 684C1024 754.688 966.688 812 896 812zM960-84c0-35.328-28.672-64-64-64L128-148c-35.328 0-64 28.672-64 64L64 684c0 35.328 28.672 64 64 64l768 0c35.328 0 64-28.672 64-64L960-84z"  horiz-adv-x="1024" />

    
    <glyph glyph-name="minus" unicode="&#58938;" d="M1024.69903121-121.10335414999997h-1016.75917513v1018.90423668h1016.75917513v-1018.90423668z m-963.13263635 53.62653878h909.50609759v911.65115915h-909.50609759v-911.65115915zM824.1357762 362.60802559h-616.7051959c-15.01543085 0-26.81326939 11.79783853-26.81326938 26.81326938s11.79783853 26.81326939 26.81326938 26.81326938h616.7051959c15.01543085 0 26.81326939-11.79783853 26.81326939-26.81326938S839.15120708 362.60802559 824.1357762 362.60802559z"  horiz-adv-x="1024" />

    
    <glyph glyph-name="tupian" unicode="&#58933;" d="M835.977846 378.092308l261.277539-277.188923V780.918154c0 18.235077-15.832615 31.350154-34.461539 31.350154H118.665846c-18.471385 0-31.665231-13.193846-34.304-31.350154v-680.014769l332.366769 397.390769c10.555077 10.633846 26.348308 21.031385 44.898462 21.031384 18.353231 0 34.185846-5.198769 44.780308-18.313846l142.454153-154.387692 10.594462-10.24c7.876923-5.277538 18.392615-10.476308 28.987077-10.476308 10.555077 0 21.149538 5.198769 31.586461 13.075693l47.576616 41.826461c10.436923 7.837538 21.031385 13.115077 34.146461 13.115077 13.233231-0.157538 26.427077-5.356308 34.225231-15.872zM1107.849846 895.881846C1149.991385 895.921231 1181.538462 864.610462 1181.538462 822.587077v-857.757539c0-41.826462-31.586462-73.137231-73.688616-73.13723H73.924923C31.586462-108.307692 0-76.918154 0-35.170462V822.665846C0 864.689231 31.586462 896 73.924923 896H1107.889231v-0.078769zM886.153846 477.499077c-68.450462 0-126.424615 57.501538-126.424615 125.479385 0 68.017231 57.974154 125.558154 126.424615 125.558153 68.608 0 126.621538-57.501538 126.621539-125.558153 0-67.938462-58.013538-125.479385-126.621539-125.479385z"  horiz-adv-x="1181" />

    
    <glyph glyph-name="remen" unicode="&#58931;" d="M536.796756 545.539116c-15.129582 0-27.129894-8.216125-35.993772-24.647353-9.914814-18.779715-14.866592-53.598732-14.866592-104.46012 0-50.603515 4.694929-85.424578 14.084787-104.46012 8.081049-16.432251 20.344351-24.647353 36.775578-24.647353 16.95209 0 29.080316 8.215102 36.385698 24.647353 9.645684 19.561521 14.475689 54.382585 14.475689 104.46012-0.264013 51.117215-5.220908 86.200244-14.867616 105.241926C564.440349 537.579841 552.446177 545.539116 536.796756 545.539116zM805.411563 664.088116 245.670236 664.088116c-48.060599 0-87.020936-38.960337-87.020936-87.020936l0-307.98242c0-48.060599 38.960337-87.020936 87.020936-87.020936l559.741327 0c48.060599 0 87.020936 38.960337 87.020936 87.020936L892.432499 577.066157C892.432499 625.126756 853.471139 664.088116 805.411563 664.088116zM420.209434 432.863894l0-32.863479L420.209434 270.892943c0-10.954493-5.477758-16.432251-16.432251-16.432251s-16.432251 5.477758-16.432251 16.432251L387.344932 400.000416l-101.720729 0L285.624203 270.892943c0-10.954493-5.477758-16.432251-16.432251-16.432251s-16.432251 5.477758-16.432251 16.432251L252.759701 400.000416l0 32.863479L252.759701 561.971367c0 10.954493 5.477758 16.432251 16.432251 16.432251 10.954493 0 16.432251-5.477758 16.432251-16.432251l0-129.107473 101.720729 0L387.344932 561.971367c0 10.954493 5.477758 16.432251 16.432251 16.432251s16.432251-5.477758 16.432251-16.432251L420.209434 432.863894zM600.959078 292.410002c-13.826913-25.302269-35.20992-37.94931-64.162322-37.94931-28.16855 0.26299-48.647977 11.865235-61.423955 34.819017-14.866592 25.039279-22.299889 67.421552-22.299889 127.151935 0 61.289901 7.042393 102.631472 21.12718 124.021641 16.689101 25.296129 37.558407 37.94931 62.597687 37.94931 28.16855-0.26299 49.816592-13.045107 64.946174-38.341237 12.519128-21.908986 18.779715-63.123666 18.779715-123.629715C620.258633 356.438271 613.737102 315.101817 600.959078 292.410002zM804.40156 545.539116l-50.860365 0L753.541195 270.892943c0-10.954493-5.477758-16.432251-16.432251-16.432251s-16.432251 5.477758-16.432251 16.432251L720.676693 545.539116 669.816329 545.539116c-10.954493 0-16.432251 5.477758-16.432251 16.432251s5.477758 16.432251 16.432251 16.432251l50.860365 0 32.863479 0 50.860365 0c10.954493 0 16.432251-5.477758 16.432251-16.432251S815.356053 545.539116 804.40156 545.539116z"  horiz-adv-x="1024" />

    
    <glyph glyph-name="tubiaozhizuomoban" unicode="&#58932;" d="M867.6 273.8c-29.4 30.1-63.7 53.7-101.8 70.2-16.6 7.2-33.7 12.9-51.2 17.1 71.5 30.2 122 102.1 122 185.9 0 110.9-88.5 201.1-197.2 201.1-67.7 0-129.9-34.8-166.4-93.2-7.3-11.7-3.8-27.1 8-34.4 11.7-7.3 27.1-3.8 34.4 8 27.3 43.6 73.6 69.7 124 69.7 81.2 0 147.2-67.8 147.2-151.1S720.6 396 639.4 396c-27.1 0-53.7 7.7-76.7 22.1-11.7 7.3-27.1 3.8-34.5-7.9-7.3-11.7-3.8-27.1 7.9-34.5 9.3-5.9 19.1-10.9 29.2-15.1-32.2-8-63.1-21-91.6-38.8-11.7-7.3-15.3-22.8-7.9-34.5 7.3-11.7 22.8-15.3 34.5-7.9 42.3 26.5 90.9 40.4 140.7 40.4 140.8 0 256.9-110.9 269.3-252H696c-13.8 0-25-11.2-25-25s11.2-25 25-25h240.2c13.8 0 25 11.2 25 25 0 87.2-33.3 169.2-93.6 231zM360.2 271.8c-163.1 0-295.3-135.2-295.3-302h590.7c-0.1 166.8-132.3 302-295.4 302z m240.5-252H119.6c3.2 16.6 8.1 32.8 14.6 48.4 12.4 30 30.2 57 52.8 80.1 22.6 23.1 48.8 41.2 78 53.8 30.1 13 62.1 19.6 95.1 19.6s65-6.6 95.1-19.6c29.2-12.6 55.4-30.7 78-53.8 22.6-23.1 40.4-50.1 52.8-80.1 6.6-15.7 11.4-31.9 14.7-48.4zM358.6 297.9c95.1 0 172.2 78.8 172.2 176.1 0 97.2-77.1 176.1-172.2 176.1S186.4 571.3 186.4 474s77.1-176.1 172.2-176.1z m-86 265.6c23 23.6 53.6 36.5 86 36.5s63-13 86-36.5c23.3-23.9 36.2-55.7 36.2-89.5 0-33.9-12.8-65.7-36.2-89.5-23-23.6-53.6-36.5-86-36.5s-63 13-86 36.5c-23.3 23.9-36.2 55.7-36.2 89.5s12.9 65.6 36.2 89.5z"  horiz-adv-x="1024" />

    
    <glyph glyph-name="queren" unicode="&#58930;" d="M956.33635556 522.85439999c-21.48124445 0-38.83614815-17.3549037-38.83614814-38.83614815v-402.92503704H102.79063704l0.84954074 621.49973334h387.26921481c21.48124445 0 38.83614815 17.3549037 38.83614816 38.83614815s-17.3549037 38.83614815-38.83614816 38.83614814h-425.984c-21.48124445 0-38.83614815-17.3549037-38.83614814-38.83614814l-0.9709037-699.17202964c0-10.31585185 4.12634075-20.14625185 11.40811851-27.54939258s17.11217778-11.40811852 27.42802963-11.40811853h892.50322963c21.48124445 0 38.83614815 17.3549037 38.83614815 38.83614815V483.89688887c-0.12136297 21.60260741-17.59762963 38.95751111-38.95751111 38.95751112zM290.29641482 491.42139257c-15.17037037 15.17037037-39.80705185 15.17037037-54.97742223 0s-15.17037037-39.80705185 0-54.97742222l190.66121483-190.66121481c7.28177778-7.28177778 17.11217778-11.40811852 27.42802962-11.40811852h0.12136296c10.31585185 0 20.26761482 4.12634075 27.54939259 11.52948148l464.82014816 468.09694815c15.17037037 15.17037037 15.04900741 39.80705185-0.24272593 54.97742222-15.17037037 15.17037037-39.80705185 15.04900741-54.97742223-0.24272592L453.40823704 328.43093332 290.29641482 491.42139257z"  horiz-adv-x="1024" />

    
    <glyph glyph-name="zhifu1" unicode="&#58927;" d="M415.209 623.872c-16.833 16.833-42.925 16.833-59.757 0s-16.833-42.925 0-59.757l87.532-87.532h-57.232c-23.566 0-42.083-18.516-42.083-42.083s18.516-42.083 42.083-42.083h84.166v-31.983h-84.166c-23.566 0-42.083-18.516-42.083-42.083s18.516-42.083 42.083-42.083h84.166v-102.68c0-23.566 18.516-42.083 42.083-42.083s42.083 18.516 42.083 42.083v103.524h84.166c23.566 0 42.083 18.516 42.083 42.083s-18.516 42.083-42.083 42.083h-84.166v31.983h84.166c23.566 0 42.083 18.516 42.083 42.083s-18.516 42.083-42.083 42.083h-58.074l87.532 87.532c16.833 16.833 16.833 42.925 0 59.757s-42.925 16.833-59.757 0l-95.948-96.791-96.791 95.948zM907.577 794.727l-395.577 94.266-386.32-94.266-34.507-6.732v-439.345c0-35.349 7.575-70.7 21.882-105.207 14.308-35.349 33.666-69.016 57.232-101.841 23.566-32.824 44.607-63.965 74.066-93.425 30.299-29.457 60.599-55.55 91.74-78.275 31.142-22.725 61.441-42.083 90.057-57.232 28.617-15.15 54.707-25.249 76.592-31.142l9.259-2.525 10.1 2.525c21.043 5.893 46.291 15.992 74.066 31.142 28.617 15.15 57.232 34.507 87.532 57.232 30.299 22.725 59.757 48.817 88.374 78.275 29.457 29.457 61.441 60.599 83.324 93.425 22.725 32.824 41.241 66.491 55.55 101.841 14.308 34.507 21.043 69.857 21.043 105.207v439.345l-24.408 6.732zM848.662 348.651c0-24.408-5.050-48.817-15.15-74.066-11.783-28.617-26.932-57.232-46.291-85.007-16.833-24.408-42.925-49.657-67.333-74.905l-6.732-6.732c-26.092-26.932-53.023-50.5-79.957-70.7-26.092-20.2-52.182-37.032-75.749-49.657-19.358-10.1-33.666-16.833-44.607-20.2-10.942 4.209-26.092 10.1-46.291 21.043-25.249 13.467-51.341 30.299-79.115 50.5-27.775 20.2-55.55 44.607-82.482 70.7-21.043 20.2-37.032 43.767-56.391 69.857-2.525 4.209-5.893 8.417-8.417 11.783-20.2 27.775-36.191 56.391-47.975 85.007-11.783 23.566-16.833 47.975-16.833 72.382v371.17l336.662 82.482 336.662-80.798v-372.852z"  horiz-adv-x="1024" />

    
    <glyph glyph-name="fasong2" unicode="&#58881;" d="M621.62708343 241.7246566L114.07266637 241.7246566 114.07266637 678.77627793 786.43559437 678.77627793 786.43559437 632.7149467300001 859.94117943 632.7149467300001 859.94117943 764.4829478 40.55180023 764.4829478 40.55180023 156.01798672999996 621.62708343 156.01798672999996ZM760.86440077 598.1986918l234.773184-268.95761493L854.44097677 329.24107792999996c0 0-30.88147093-350.10497813-328.34976107-350.10497813 0 0 122.08834347 44.29960747 145.2090592 213.6739744 3.80942827 27.6658336 7.52389333 69.78457067 7.52389333 136.52596587L526.10758903 329.33604006999997 760.86440077 598.1986918z"  horiz-adv-x="1024" />

    
    <glyph glyph-name="logo" unicode="&#59031;" d="M269.2608 11.519999999999982H0l10.68544 19.06176c1.664 2.96448 29.94176 52.8128 82.77504 111.76448l2.94912 7.168c1.1008 2.66752 110.34624 267.96544 149.25824 355.52256 96.1536 216.33536 139.38688 246.85056 144 249.62048l3.072 1.8432 267.50976-1.4336 2.18112 2.31424 1.05472-2.3296 4.52096-0.02048-3.16928-2.94912 288.4352-635.62752c41.86624-47.29856 61.12256-82.70848 62.48448-85.24288l10.0608-18.816-264.35072-0.23552-3.84 4.608c-0.78336 0.93184-82.01728 95.23712-248.1408 95.87712l-1.4848 0.00512c-155.53024 0-234.12224-95.39072-234.89536-96.34816l-3.84512-4.78208z m-224.43008 25.6h212.46976c18.98496 20.87424 101.67808 101.12512 250.7008 101.12512l1.58208-0.00512c159.03744-0.6144 244.25984-80.04096 263.55712-100.47488l208.384 0.18432c-22.6304 34.06336-79.17056 108.61568-177.73568 175.45728-138.10688 93.64992-282.68544 96.35328-298.71616 96.35328l-0.88576-0.00512c-0.86528-0.01536-88.7552-1.792-153.14944-27.25888-51.09248-20.20352-96.2816-40.90368-124.06272-56.82688a533.73952 533.73952 0 0 1-34.70336-24.24832c-75.15648-60.72832-125.82912-131.1744-147.44064-164.3008z m580.95616 282.1376c23.17824-5.65248 103.78752-26.91072 166.8352-63.2576 37.10976-21.4016 74.4704-49.93536 102.26176-72.84224L654.94528 711.9104c-18.78528-20.49536-46.1568-51.36384-54.26688-64.69632-16.37888-26.92608-51.94752-110.11072-60.99968-131.49184l86.10816-196.46464z m-225.1264 411.5968c-9.55904-8.83712-50.59072-53.9648-131.59424-236.2112-27.90912-62.79168-92.25728-217.66656-126.53568-300.52864a708.86912 708.86912 0 0 0 34.29376 27.71456c4.12672 3.34336 8.64256 6.89664 13.25568 10.4192 6.07744 4.64384 14.02368 9.79968 23.63392 15.32416h0.00512a403.7632 403.7632 0 0 0 34.688 19.85536c68.95104 34.7648 133.17632 53.14048 152.87296 58.34752 13.18912 28.41088 74.87488 161.55648 126.63296 277.82656 26.66496 59.89376 58.26048 102.4256 78.46912 126.15168l-205.7216 1.1008zM505.07264 335.36c7.48544 0 41.6512-0.55296 89.99424-9.78432l-80.98304 184.77568a24594.70848 24594.70848 0 0 0-83.17952-181.54496c39.35744 5.888 70.67136 6.50752 72.86784 6.54336l1.30048 0.01024z"  horiz-adv-x="1024" />

    
    <glyph glyph-name="home" unicode="&#59074;" d="M922.7-64.2H101.3c-20.6 0-37.3 16.7-37.3 37.3V520.7c0 12.5 6.2 24.1 16.6 31.1L491.3 825.5c12.5 8.4 28.9 8.4 41.4 0l410.7-273.8c10.4-6.9 16.6-18.6 16.6-31.1V-27c0-20.5-16.7-37.2-37.3-37.2z m-784 74.6h746.7V500.7L512 749.6 138.7 500.7v-490.3zM624-64.2H400c-20.6 0-37.3 16.7-37.3 37.3V346.4c0 20.6 16.7 37.3 37.3 37.3h224c20.6 0 37.3-16.7 37.3-37.3v-373.3c0-20.6-16.7-37.3-37.3-37.3z m-186.7 74.6h149.3V309.1H437.3v-298.7z"  horiz-adv-x="1024" />

    
    <glyph glyph-name="caidan1-copy" unicode="&#943744;" d="M1407.99999994-128l-1404.342857 0 0 117.028571L1407.99999994-10.971428999999944zM822.85714294 196.75428599999998l-819.2 0 0 117.028571L822.85714294 313.78285700000004zM822.85714294 489.325714l-819.2 0 0 117.028572L822.85714294 606.354286zM1407.99999994 778.971429l-1404.342857 0 0 117.028571L1407.99999994 896zM1045.79657094 559.542857L1045.79657094 241.225143a24.576 24.576 0 0 1 36.86399999-21.065143L1360.60342894 380.489143a24.576 24.576 0 0 1 0 42.130286l-277.942858 160.329142a24.576 24.576 0 0 1-36.864-23.405714z"  horiz-adv-x="1404" />

    
    <glyph glyph-name="caidan1" unicode="&#58979;" d="M0 896h1404.342857v-117.028571H0zM585.142857 571.245714h819.2v-117.028571H585.142857zM585.142857 278.674286h819.2v-117.028572H585.142857zM0-10.971429h1404.342857v-117.028571H0zM362.203429 208.457143V526.774857a24.576 24.576 0 0 1-36.864 21.065143L47.396571 387.510857a24.576 24.576 0 0 1 0-42.130286l277.942858-160.329142a24.576 24.576 0 0 1 36.864 23.405714z"  horiz-adv-x="1404" />

    
    <glyph glyph-name="tixing" unicode="&#59060;" d="M512 716.8c192 0 352-160 352-352S704 12.8 512 12.8s-352 160-352 352S320 716.8 512 716.8m0 64c-230.4 0-416-185.6-416-416s185.6-416 416-416 416 185.6 416 416S742.4 780.8 512 780.8zM236.8 819.2c-6.4 0-19.2 0-25.6-6.4L128 716.8c-12.8-6.4-12.8-32 0-44.8 6.4-6.4 12.8-6.4 25.6-6.4 6.4 0 19.2 0 25.6 6.4L262.4 768c12.8 12.8 12.8 32 0 44.8-6.4 6.4-12.8 6.4-25.6 6.4zM787.2 819.2c-6.4 0-19.2 0-25.6-6.4-12.8-12.8-12.8-32 0-44.8l89.6-89.6c6.4-6.4 12.8-6.4 25.6-6.4 6.4 0 19.2 0 25.6 6.4 12.8 12.8 12.8 32 0 44.8l-89.6 89.6c-6.4 6.4-19.2 6.4-25.6 6.4zM512 608c-19.2 0-32-12.8-32-32v-192c0-19.2 12.8-32 32-32h192c19.2 0 32 12.8 32 32s-12.8 32-32 32H544V576c0 19.2-12.8 32-32 32z"  horiz-adv-x="1024" />

    
    <glyph glyph-name="renwu" unicode="&#58993;" d="M471.04 192.853333L375.466667 302.08c-13.653333 6.826667-34.133333 20.48-40.96 6.826667-13.653333-13.653333-6.826667-34.133333 0-47.786667L450.56 145.066667l6.826667-6.826667h27.306666s6.826667 0 6.826667 6.826667l238.933333 238.933333c13.653333 13.653333 20.48 27.306667 6.826667 34.133333-13.653333 13.653333-27.306667 13.653333-34.133333 0l-232.106667-225.28zM703.146667 752.64V875.52c0 13.653333-6.826667 20.48-20.48 20.48-6.826667 0-20.48-6.826667-20.48-20.48v-122.88H348.16V875.52C348.16 889.173333 341.333333 896 327.68 896c-13.653333 0-20.48-6.826667-20.48-20.48v-122.88H143.36C61.44 752.64 0 684.373333 0 609.28v-593.92C0-66.56 61.44-128 143.36-128h737.28c81.92 0 143.36 61.44 143.36 143.36V609.28c0 75.093333-61.44 143.36-143.36 143.36h-177.493333z m177.493333-839.68H143.36c-54.613333 0-102.4 40.96-102.4 95.573333V609.28c0 54.613333 47.786667 95.573333 102.4 95.573333h163.84v-109.226666c0-13.653333 6.826667-20.48 20.48-20.48 13.653333 0 20.48 6.826667 20.48 20.48V704.853333h314.026667v-109.226666c0-13.653333 6.826667-20.48 20.48-20.48 13.653333 0 20.48 6.826667 20.48 20.48V704.853333h177.493333c54.613333 0 102.4-40.96 102.4-95.573333v-593.92c0-54.613333-47.786667-102.4-102.4-102.4z"  horiz-adv-x="1024" />

    
    <glyph glyph-name="shijian" unicode="&#59583;" d="M465.171875 311.4375c16.875-8.015625 33.328125-16.875 49.78125-25.3125l78.046875-39.65625c37.125-18.984375 73.828125-37.546875 110.953125-56.53125 5.90625-2.953125 11.8125-4.640625 17.296875-4.640625 4.640625 0 8.859375 0.84375 13.5 2.953125 11.8125 5.484375 18.140625 15.609375 18.5625 28.6875 0 13.078125-6.328125 23.203125-19.40625 29.953125l-72.140625 36.703125c-45.140625 23.203125-90.28125 46.40625-135.84375 69.1875-5.0625 2.53125-6.328125 4.640625-6.328125 10.125V458.25c0 41.34375 0 83.109375 0.421875 124.453125 0 25.3125-16.453125 36.703125-32.484375 37.125-8.4375 0-16.453125-3.375-22.359375-9.28125-6.75-6.75-10.125-16.453125-10.125-27.421875 0.421875-29.53125 0.421875-59.90625 0.421875-89.015625v-166.21875c-0.421875-8.4375 2.53125-13.078125 9.703125-16.453125zM891.6875 223.265625c28.265625 63.28125 37.96875 132.890625 29.953125 206.71875-3.796875 32.484375-11.8125 64.96875-24.046875 96.1875-5.90625 15.1875-20.671875 23.625-35.4375 20.25-10.125-2.109375-18.140625-7.59375-21.9375-15.1875-4.640625-8.015625-4.640625-18.984375-0.84375-29.953125 21.9375-60.328125 27-121.078125 16.03125-180.5625-16.875-89.859375-61.59375-162.421875-132.890625-215.578125-81.421875-61.171875-173.390625-83.53125-272.953125-67.078125-92.390625 15.1875-167.484375 59.90625-222.75 132.890625-61.59375 81.421875-83.953125 172.125-66.65625 270.84375 15.609375 88.171875 59.484375 160.3125 130.359375 214.3125 80.15625 61.171875 171.703125 84.375 272.53125 69.609375 16.453125-2.53125 32.0625-6.75 48.9375-10.96875h0.421875c4.21875-1.265625 8.4375-2.109375 12.65625-3.375l13.921875-3.375-13.078125-22.359375c-4.640625-7.59375-8.859375-14.765625-13.078125-21.9375-1.265625-2.109375-3.375-6.75-1.6875-9.703125 1.265625-2.109375 5.484375-3.375 10.96875-2.953125 1.265625 0 2.953125 0 4.21875 0.421875l24.890625 3.796875c25.734375 4.21875 54.84375 8.4375 83.53125 13.5 6.328125 1.265625 11.390625 4.21875 13.921875 8.4375 2.53125 4.21875 2.53125 9.703125 0.84375 15.1875-11.8125 34.171875-24.46875 69.1875-38.390625 106.3125-1.265625 3.375-5.484375 7.171875-6.75 7.171875-2.53125 0-6.75-2.953125-9.28125-6.328125-6.328125-9.28125-12.65625-19.40625-18.984375-31.21875l-4.21875-7.59375-8.015625 2.53125c-0.84375 0-1.6875 0.421875-2.109375 0.84375C611.984375 783.515625 560.9375 793.21875 509.46875 793.21875c-16.03125 0-32.90625-0.84375-48.9375-2.953125-89.4375-10.546875-166.21875-44.71875-227.8125-100.828125-116.015625-105.46875-160.734375-236.25-132.046875-388.125 18.5625-98.71875 69.1875-180.140625 149.765625-241.3125 77.625-59.0625 162.421875-89.015625 251.859375-89.015625 29.953125 0 60.75 3.375 91.96875 10.125 138.796875 29.109375 239.203125 110.953125 297.421875 242.15625z"  horiz-adv-x="1024" />

    
    <glyph glyph-name="shouji1" unicode="&#58925;" d="M509.95839 164.974634z m-39.943923 0a39.943923 39.943923 0 1 1 39.943923 39.943923 39.943923 39.943923 0 0 1-39.943923-39.943923m89.558631 486.562254a3.896968 3.896968 0 0 1-3.896969 3.896968h-96.593231a3.896968 3.896968 0 0 1-3.896968-3.896968v-2.765128a3.896968 3.896968 0 0 1 3.896968-3.896968h96.593231a3.896968 3.896968 0 0 1 3.896969 3.896968v2.765128m99.831153-30.086886H360.584165c-7.793936 0-15.645181-6.719405-15.645181-13.352846v-362.23178c0-6.633442 7.851245-10.315504 15.645181-10.315504h298.820086c7.793936 0 12.765436 3.682062 12.765435 10.315504V608.02552c0 6.633442-4.9715 13.352847-12.765435 13.352847M512.007164 896C229.233417 896 0 666.766583 0 383.992836s229.233417-511.992836 512.007164-511.992836 512.007164 229.233417 512.007163 512.007164S794.78091 896 512.007164 896m189.490073-775.510976c0-16.834329-11.390035-30.387755-26.505114-30.387755H349.308746c-15.115078 0-29.012354 13.539099-29.012354 30.387755V647.840499c0 16.834329 13.897276 31.046801 29.012354 31.046801h325.683377c15.115078 0 26.505114-14.212472 26.505114-31.046801v-527.351475"  horiz-adv-x="1024" />

    
    <glyph glyph-name="upload" unicode="&#58944;" d="M828.40625 46.97916666000003l-675 0c-34.8890625 0-63.28125 28.3921875-63.28125 63.28125l0 84.375c0 11.64375 9.45 21.09375 21.09375 21.09375s21.09375-9.45 21.09375-21.09375l0-84.375c0-11.64375 9.45-21.09375 21.09375-21.09375l675 0c11.64375 0 21.09375 9.45 21.09375 21.09375l0 84.375c0 11.64375 9.45 21.09375 21.09375 21.09375s21.09375-9.45 21.09375-21.09375l0-84.375c0-34.8890625-28.3921875-63.28125-63.28125-63.28125zM716.778125 483.78854166l-210.9375 210.9375c-8.2265625 8.2265625-21.6 8.2265625-29.8265625 0l-210.9375-210.9375c-8.2265625-8.2265625-8.2265625-21.6 0-29.8265625s21.6-8.2265625 29.8265625 0l174.909375 174.909375 0-434.2359375c0-11.64375 9.45-21.09375 21.09375-21.09375s21.09375 9.45 21.09375 21.09375l0 434.2359375 174.909375-174.909375c4.134375-4.134375 9.534375-6.159375 14.934375-6.159375s10.8 2.0671875 14.934375 6.159375c8.2265625 8.2265625 8.2265625 21.6 0 29.8265625z"  horiz-adv-x="1024" />

    
    <glyph glyph-name="weixin" unicode="&#59048;" d="M575.0784 384.375467c-10.922667 0-21.845333-10.103467-21.845333-22.562134 0-10.1376 10.922667-20.241067 21.845333-20.241066 16.349867 0 27.989333 10.103467 27.989333 20.241066 0 12.458667-11.639467 22.562133-27.989333 22.562134z m-71.645867 105.130666c17.134933 0 28.023467 10.888533 28.023467 27.2384 0 17.134933-10.888533 27.272533-27.989333 27.272534-16.384 0-31.9488-10.1376-31.9488-27.272534 0-16.384 15.5648-27.2384 31.914666-27.2384zM512 861.866667C248.081067 861.866667 34.133333 647.918933 34.133333 384s213.947733-477.866667 477.866667-477.866667 477.866667 213.947733 477.866667 477.866667S775.918933 861.866667 512 861.866667z m-90.3168-598.9376c-28.808533 0-49.834667 4.676267-77.073067 12.458666l-78.6432-39.697066 22.596267 66.935466c-55.296 38.912-87.995733 87.995733-87.995733 147.933867 0 105.8816 99.669333 186.88 221.115733 186.88 107.451733 0 203.229867-63.829333 221.9008-154.180267a107.4176 107.4176 0 0 1-21.026133 2.3552c-105.8816 0-187.630933-79.428267-187.630934-175.2064 0-16.349867 2.321067-31.1296 6.212267-46.6944-6.212267-0.785067-13.2096-0.785067-19.456-0.785066z m324.676267-76.288l15.5648-56.081067-59.1872 33.4848c-22.528-4.676267-44.373333-11.6736-66.935467-11.6736-104.3456 0-186.845867 71.645867-186.845867 160.392533 0 88.746667 82.500267 160.392533 186.845867 160.392534 98.884267 0 187.630933-71.645867 187.630933-160.426667 0-49.800533-33.450667-94.173867-77.073066-126.088533z m-397.073067 357.376c-16.384 0-33.450667-10.1376-33.450667-27.272534 0-16.349867 17.066667-27.2384 33.450667-27.2384 15.5648 0 27.989333 10.922667 27.989333 27.2384 0 17.134933-12.424533 27.272533-27.989333 27.272534z m348.023467-159.6416a22.4256 22.4256 0 0 1-21.8112-22.562134c0-10.1376 10.1376-20.241067 21.8112-20.241066 15.5648 0 27.2384 10.103467 27.2384 20.241066 0 12.458667-11.6736 22.562133-27.2384 22.562134z"  horiz-adv-x="1024" />

    
    <glyph glyph-name="qq1" unicode="&#58936;" d="M512 896C228.864 896 0 667.136 0 384s228.864-512 512-512 512 228.864 512 512S795.136 896 512 896z m210.432-641.536c-7.68-9.216-27.136 2.048-41.984 32.768-3.584-13.824-12.8-36.352-34.304-64 35.328-8.192 44.544-43.008 33.28-61.44-8.192-12.8-27.136-24.064-59.392-24.064-58.88 0-83.968 15.872-95.744 27.136-2.048 2.56-5.632 3.584-10.24 3.584-4.608 0-7.68-1.024-10.24-3.584-11.264-11.264-37.376-27.136-95.744-27.136-32.768 0-52.224 11.264-59.392 24.064-12.288 18.432-2.048 53.248 33.28 61.44-20.48 28.16-29.696 50.176-34.304 64-13.824-30.72-34.304-43.008-41.984-32.768-5.632 8.192-8.192 26.112-7.68 38.4 3.584 46.592 34.304 85.504 53.248 105.984-2.56 5.632-8.192 39.936 14.848 63.488v2.048c0 92.16 65.024 158.208 147.968 158.208 81.92 0 147.968-66.048 147.968-158.208v-2.048c23.04-23.04 17.92-57.856 14.848-63.488 17.92-20.48 49.152-59.392 53.248-105.984 0.512-12.288-1.024-29.696-7.68-38.4z"  horiz-adv-x="1024" />

    
    <glyph glyph-name="xinzeng" unicode="&#58923;" d="M799 193.6H679.1v-124.2c0-10.2-8.3-18.5-18.5-18.5h-25.4c-10.2 0-18.5 8.3-18.5 18.5V193.6H496.9c-4.9 0-9.6 2-13.1 5.4-3.5 3.5-5.4 8.2-5.4 13.1v25.4c0 10.2 8.3 18.5 18.5 18.5h119.9V380.2c0 10.2 8.3 18.5 18.5 18.5h25.4c10.2 0 18.5-8.3 18.5-18.5V256H799c4.9 0 9.6-1.9 13.1-5.4 3.5-3.5 5.4-8.2 5.4-13.1v-25.4c0-4.9-2-9.6-5.4-13.1-3.5-3.5-8.2-5.4-13.1-5.4zM308.6 716.4h369.7c81.7 0 147.9-66.2 147.9-147.9v-201c0-18-17.6-20.8-17.6-20.8h-14.9c-15.6 0-16.9 21.1-16.9 21.1v63H247.2v-231.9s25.8-94.2 98.5-94.2h165.9s18.8-1.3 18.8-16.8V70c0-17.5-18.1-19-18.1-19H345.7c-81.7 0-147.9 66.2-147.9 147.9V717.1m49.1-48v-190.6h532.7v91c0 87.9-87.3 99.6-87.3 99.6H331.4"  horiz-adv-x="1024" />

    
    <glyph glyph-name="user1" unicode="&#58922;" d="M535.273 814.182c-257.071 0-465.455-208.384-465.455-465.455s208.384-465.455 465.455-465.455c257.071 0 465.455 208.384 465.455 465.455 0 257.071-208.384 465.455-465.455 465.455zM254.185 38.735c43.846 113.012 152.576 193.629 281.088 193.629 128.512 0 237.242-80.617 281.088-193.583-74.38-67.491-172.777-108.963-281.088-108.963-108.311 0-206.708 41.472-281.088 108.916zM395.636 418.545c0 77.126 62.511 139.636 139.636 139.636 77.126 0 139.636-62.511 139.636-139.636s-62.511-139.636-139.636-139.636c-77.126 0-139.636 62.511-139.636 139.636zM851.503 74.528c-41.146 89.786-118.365 159.279-213.876 188.695 50.455 33.28 83.828 90.345 83.828 155.322 0 102.819-83.363 186.182-186.182 186.182-102.819 0-186.182-83.363-186.182-186.182 0-64.977 33.373-122.042 83.875-155.369-95.511-29.37-172.73-98.863-213.876-188.695-63.86 73.542-102.726 169.239-102.726 274.246 0 231.377 187.532 418.909 418.909 418.909 231.377 0 418.909-187.532 418.909-418.909 0-105.007-38.912-200.704-102.679-274.199z"  horiz-adv-x="1024" />

    
    <glyph glyph-name="xuesheng1" unicode="&#59057;" d="M1153.560381 569.977905L614.4 883.46819c-8.338286 5.558857-18.090667 5.558857-29.257143 0L16.725333 569.977905C5.558857 561.639619 0 553.252571 0 544.914286c0-13.945905 4.193524-22.28419 12.53181-25.063619L196.510476 415.353905v-125.415619c0-108.641524 39.009524-201.97181 117.028572-279.990857 75.190857-75.239619 167.15581-112.88381 275.846095-112.88381 105.862095 0 197.827048 37.64419 275.846095 112.88381 75.239619 78.019048 112.835048 171.349333 112.835048 279.990857V423.69219l71.046095 41.788953 4.193524-288.377905h58.514285l-4.193523 317.635048 45.982476 25.112381c8.387048 2.779429 12.53181 11.117714 12.531809 25.063619l-12.531809 25.063619z m-75.239619-25.063619l-509.903238-280.039619L87.771429 540.720762l509.903238 284.233143L1078.320762 544.914286z m-158.817524-150.479238v-104.496762c0-91.91619-32.036571-171.349333-96.109714-238.201905-66.901333-64.121905-144.920381-96.158476-234.057143-96.158476-91.964952 0-169.984 32.036571-234.057143 96.158476-66.901333 66.852571-100.303238 146.285714-100.303238 238.201905v91.964952l296.71619-175.542857 16.725334-4.193524 12.531809 4.193524 338.553905 188.074667z"  horiz-adv-x="1170" />

    
    <glyph glyph-name="daiban" unicode="&#58948;" d="M114-5V460h736v-82c0-13.3 10.7-24 24-24s24 10.7 24 24V695c0 26.5-21.5 48-48 48H698.5v49.5c0 13.5-11 24.8-24.5 24.5-13-0.2-23.5-10.9-23.5-24v-50h-337v49.5c0 13.5-11 24.8-24.5 24.5-13-0.2-23.5-10.9-23.5-24v-50H114c-26.5 0-48-21.5-48-48v-700c0-26.5 21.5-48 48-48h462c13.3 0 24 10.7 24 24s-10.7 24-24 24H114z m0 700h151.5v-53.5c0-13.5 11-24.8 24.5-24.5 13 0.2 23.5 10.9 23.5 24v54h337v-53.5c0-13.5 11-24.8 24.5-24.5 13 0.2 23.5 10.9 23.5 24v54H850v-187H114V695zM749 365c-115.4 0-209-93.6-209-209s93.6-209 209-209 209 93.6 209 209-93.6 209-209 209z m0-370c-88.8 0-161 72.2-161 161s72.2 161 161 161 161-72.2 161-161-72.2-161-161-161zM821 180h-48v88c0 13.3-10.7 24-24 24s-24-10.7-24-24v-112c0-13.3 10.7-24 24-24h72c13.3 0 24 10.7 24 24s-10.7 24-24 24z"  horiz-adv-x="1024" />

    
    <glyph glyph-name="genzong" unicode="&#58921;" d="M753.7 625l-48.1-48.1c49.2-49.5 79.9-117.8 79.9-193.2 0-150.9-122.2-273.1-273.1-273.1-150.9 0-273.1 122.2-273.1 273.1 0 139.3 104.1 253.9 238.9 270.7v-68.9C381.3 569 307.5 485 307.5 383.7c0-113 91.8-204.8 204.8-204.8 113 0 204.8 91.8 204.8 204.8 0 56.7-22.9 107.9-60.1 144.7l-48.1-48.1c25.5-25.7 39.9-60.4 39.9-96.6 0-75.4-61.1-136.5-136.5-136.5s-136.5 61.1-136.5 136.5c0 63.5 43.7 116.4 102.4 131.8v-73c-20.5-11.9-34.1-33.4-34.1-58.7 0-37.5 30.7-68.3 68.3-68.3s68.3 30.7 68.3 68.3c0 25.3-13.7 47.1-34.1 58.7V725h-34.1C323.9 725 171 572.1 171 383.7s152.9-341.3 341.3-341.3 341.3 152.9 341.3 341.3c0.1 94.2-38.2 179.5-99.9 241.3z m0 0"  horiz-adv-x="1024" />

    
    <glyph glyph-name="web1" unicode="&#58918;" d="M512 800h-1c-229.3-0.6-415-186.6-415-416 0-229.3 185.7-415.4 415-416h1c229.7 0 416 186.3 416 416S741.7 800 512 800z m16.6-249c44.1 1.2 87 7 128.3 17.1 12.5-49 20.2-105.6 21.4-167.5H528.6V551z m0 33.3V764.1c44.9-12.4 90.3-72.2 119.3-163.9-38.4-9.3-78.3-14.7-119.3-15.9z m-33.2 180.2v-180.1c-41.3 1.2-81.5 6.7-120.2 16.1 29.1 92.2 75 152.2 120.2 164z m0-213.4v-150.4H344.6c1.2 62 9 118.6 21.4 167.7 41.7-10.2 84.9-16.1 129.4-17.3zM311.1 400.6H129.7c3.7 85.5 35.5 163.9 86.6 226 37.1-20.4 76.4-37.1 117.5-49.6-13.4-53-21.5-112.9-22.7-176.4z m0-33.2c1.2-63.5 9.3-123.3 22.7-176.4-41.2-12.5-80.5-29.2-117.5-49.6-51 62.1-82.9 140.5-86.6 226h181.4z m33.5 0h150.8v-150.2c-44.5-1.2-87.7-7.1-129.4-17.3-12.5 48.9-20.2 105.5-21.4 167.5z m150.8-183.5v-180.3c-45.2 11.8-91.1 71.9-120.3 164.3 38.7 9.3 78.9 14.8 120.3 16z m33.2-180v180c41-1.2 80.9-6.6 119.3-15.9-28.9-91.8-74.4-151.7-119.3-164.1z m0 213.2V367.4h149.7C677.2 305.5 669.4 249 657 200c-41.3 10.1-84.2 15.9-128.4 17.1z m183.3 150.3h182.4c-3.7-85.5-35.5-163.9-86.5-226-37.4 20.5-77 37.4-118.5 49.9 13.3 53 21.4 112.7 22.6 176.1z m0 33.2c-1.2 63.4-9.3 123.2-22.7 176.2 41.5 12.5 81.1 29.3 118.5 49.9 51.1-62.1 83-140.5 86.6-226.1H711.9z m72.8 251.6c-33.1-17.6-68.1-32.2-104.6-43.2-19.5 62.6-46.8 113.7-79.1 147.2 71-17 134.2-53.7 183.7-104zM421.6 755.8c-32.1-33.5-59.3-84.3-78.7-146.6-35.8 10.9-70.5 25.3-103.6 42.9 49.2 50.1 111.9 86.6 182.3 103.7zM239.2 116c33.1 17.7 67.8 32 103.7 43 19.4-62.3 46.6-113.3 78.7-146.8-70.4 17.1-133.2 53.7-182.4 103.8z m361.9-104.1c32.3 33.5 59.7 84.7 79.1 147.4 36.2-11 71.2-25.5 104.6-43.3-49.5-50.4-112.8-87.2-183.7-104.1z"  horiz-adv-x="1024" />

    
    <glyph glyph-name="address" unicode="&#59052;" d="M512 295.424c-83.456 0-152.064 68.096-152.064 152.064S428.544 599.552 512 599.552s152.064-68.096 152.064-152.064-68.608-152.064-152.064-152.064z m0 258.048c-58.88 0-105.984-48.128-105.984-105.984 0-58.88 48.128-105.984 105.984-105.984 58.88 0 105.984 48.128 105.984 105.984s-47.104 105.984-105.984 105.984zM800.768 670.72c-4.608 6.656-9.728 13.312-14.336 19.968-1.024 1.024-2.048 3.072-3.584 3.584-5.632 6.656-11.264 12.288-16.896 18.944l-7.68 7.68c-4.608 4.608-9.728 8.704-14.336 13.312l-3.072 3.072c-11.264 8.704-27.136 10.24-35.84-1.024-5.632-7.68-5.12-18.944 1.536-27.136 2.048-3.584 6.144-7.168 9.216-11.264l3.584-3.584c2.048-2.048 4.608-3.584 8.704-7.68l11.264-11.264c3.072-3.072 5.632-6.656 9.728-9.728 2.048-3.072 4.608-5.632 6.656-8.704 41.984-52.224 67.584-117.76 67.584-189.952 0-145.92-239.616-409.6-306.176-475.136-98.816 98.816-315.904 343.552-315.904 475.136-1.536 167.424 144.384 309.248 311.296 309.248 9.728 0 17.92-1.024 27.648-1.024h4.608c16.896-2.048 34.304-5.632 50.176-10.24 5.632-2.048 7.68-3.072 14.336-4.608h2.048c12.288-3.584 26.624-3.072 31.232 9.216 4.608 13.312-1.024 27.648-14.336 32.256-6.656 3.072-14.336 4.608-20.992 7.68-19.968 6.656-35.84 8.704-55.808 10.24-2.048 0-3.584 0-5.632 1.024-3.072 0-8.704 1.024-8.704 0-8.704 1.024-16.384 1.024-24.576 1.024-194.56 0-353.792-158.72-353.792-353.792 0-189.952 324.608-504.832 337.92-518.144 4.608-4.608 11.264-6.656 16.896-6.656 3.584 0 7.68 1.024 11.264 3.072 14.336 6.656 340.48 329.216 340.48 521.728 1.024 75.264-23.552 145.408-64.512 202.752z"  horiz-adv-x="1024" />

    
    <glyph glyph-name="tel-copy" unicode="&#58917;" d="M513.017 644.366c-209.85 0-379.975-327.639-379.975-491.857 0-150.458 65.196-150.151 379.975-150.151 314.802 0 379.997-0.307 379.997 150.151 0 164.215-170.13 491.857-379.997 491.857zM514.128 230.316c-89.167 0-161.445 76.913-161.445 171.817 0 94.893 72.278 171.818 161.445 171.818 89.156 0 161.438-76.926 161.438-171.818 0-94.904-72.281-171.817-161.438-171.817zM512.225 765.64c-509.115-0.72-456.507-292.756-438.632-317.172 31.663-51.228 91.316-25.109 102.146-0.996 66.186 112.763 180.598 233.064 336.486 233.064 155.845 0 277.692-130.191 332.915-232.067 28.539-50.553 83.342-45.203 107.23 0 15.351 33.826 63.318 317.171-440.145 317.171z"  horiz-adv-x="1024" />

    
    <glyph glyph-name="apartment" unicode="&#58909;" d="M680.74338596 552.72685043l42.18584628 0 0-42.18584628-42.18584628 0 0 42.18584628zM680.74338596 468.35515787l42.18584628 0 0-42.18584629-42.18584628 0 0 42.18584629zM680.74338596 383.98346447999995l42.18584628 0 0-42.18584629-42.18584628 0 0 42.18584629zM680.74338596 299.6117719l42.18584628 1e-8 0-42.18584628-42.18584628 0 0 42.18584628zM680.74338596 130.86838595999996l42.18584628 0 0-42.18584629-42.18584628 0 0 42.18584629zM680.74338596 215.24007852l42.18584628 0 0-42.18584628-42.18584628 0 0 42.18584628zM343.25661404 552.72685043l42.18584629 0 0-42.18584628-42.18584629 0 0 42.18584628zM343.25661404 468.35515787l42.18584629 0 0-42.18584629-42.18584629 0 0 42.18584629zM343.25661404 383.98346447999995l42.18584629 0 0-42.18584629-42.18584629 0 0 42.18584629zM343.25661404 299.6117719l42.18584629 1e-8 0-42.18584628-42.18584629 0 0 42.18584628zM343.25661404 130.86838595999996l42.18584629 0 0-42.18584629-42.18584629 0 0 42.18584629zM343.25661404 215.24007852l42.18584629 0 0-42.18584628-42.18584629 0 0 42.18584628zM258.88492148 552.72685043l42.18584629 0 0-42.18584628-42.18584629 0 0 42.18584628zM258.88492148 468.35515787l42.18584629 0 0-42.18584629-42.18584629 0 0 42.18584629zM258.88492148 383.98346447999995l42.18584629 0 0-42.18584629-42.18584629 0 0 42.18584629zM258.88492148 299.6117719l42.18584629 1e-8 0-42.18584628-42.18584629 0 0 42.18584628zM258.88492148 130.86838595999996l42.18584629 0 0-42.18584629-42.18584629 0 0 42.18584629zM258.88492148 215.24007852l42.18584629 0 0-42.18584628-42.18584629 0 0 42.18584628zM427.62830743 552.72685043l42.18584628 0 0-42.18584628-42.18584628 0 0 42.18584628zM427.62830743 468.35515787l42.18584628 0 0-42.18584629-42.18584628 0 0 42.18584629zM427.62830743 383.98346447999995l42.18584628 0 0-42.18584629-42.18584628 0 0 42.18584629zM427.62830743 299.6117719l42.18584628 1e-8 0-42.18584628-42.18584628 0 0 42.18584628zM427.62830743 130.86838595999996l42.18584628 0 0-42.18584629-42.18584628 0 0 42.18584629zM427.62830743 215.24007852l42.18584628 0 0-42.18584628-42.18584628 0 0 42.18584628zM870.57969546 4.310846289999972l-21.09292355 0 0 569.50892769c0 32.187801-23.91937481 65.34587659-54.46192758 75.55485114l-198.65315094 66.23177866 0 69.1847883c0 6.66536379-3.16393808 12.95105493-8.52154129 16.9165242s-12.2760813 5.18885898-18.64614414 3.29049564l-381.44442398-114.45020179c-31.09096884-9.32307248-55.43220218-42.05928873-55.43220217-74.50020484l0-611.69477398-21.09292356 0c-11.64329351 0-21.09292356-9.44962921-21.09292355-21.09292355s9.44962921-21.09292356 21.09292355-21.09292356l759.34523638 0c11.64329351 0 21.09292356 9.44962921 21.09292356 21.09292356s-9.44962921 21.09292356-21.09292356 21.09292355zM781.69411673 609.34025647c13.4150993-4.47169949 25.60680891-21.38822452 25.6068089-35.52048249l0-569.50892769-210.92923224 0 0 666.78948934 185.32242334-61.76007916zM174.51322809 616.00562027c0 13.87914368 12.10733789 30.12069424 25.39587964 34.08616433l354.27673856 106.30833317 0-752.08927067-379.6726182 0 0 611.69477399z"  horiz-adv-x="1024" />

    
    <glyph glyph-name="woshouaixin" unicode="&#58916;" d="M823.00907623 399.26350007l5.1285359 5.1285359A219.79440024 219.79440024 0 0 1 517.49486034 715.27900457l-5.12853668-5.1285359-6.59383131 6.5938321a216.13116053 216.13116053 0 0 1-304.04892048 0l-8.05912829-8.30334432A216.6195926 216.6195926 0 0 1 180.23256336 420.0218597l38.83034446-43.22623149-45.42417654-44.93574449A66.18253619 66.18253619 0 0 1 220.28398798 217.81101145000002a97.68640044 97.68640044 0 0 1 12.21079929 0 65.69410412 65.69410412 0 0 1 64.96145679-78.14911943 56.41389644 56.41389644 0 0 1 11.23393593 1.22107939 65.69410412 65.69410412 0 0 1 77.17225607-76.43960799A66.18253619 66.18253619 0 0 1 497.71336406 7.785251710000011l46.40103991 46.40103991 5.37275192-5.37275194a63.98459189 63.98459189 0 0 1 90.6041363 0 63.49615983 63.49615983 0 0 1 18.56041613 45.17995975 48.84320022 48.84320022 0 0 1 0 10.50128784 51.04114375 51.04114375 0 0 1 10.50128782 0 63.74037586 63.74037586 0 0 1 63.98459189 63.98459266 94.75580806 94.75580806 0 0 1 0 11.72236799 64.71723999 64.71723999 0 0 1 56.90232851 17.58355199 64.22880792 64.22880792 0 0 1 17.82776803 55.68124758 73.26480034 73.26480034 0 0 1 10.2570718 0A63.74037586 63.74037586 0 0 1 880.15562078 315.4974119a64.47302396 64.47302396 0 0 1-18.56041612 45.42417577z m-11.96658403 298.67616855a195.37280013 195.37280013 0 0 0 0-276.20829669l-5.12853588-5.12853591L638.38177996 584.13501237a12.21080005 12.21080005 0 0 1-8.54755957 3.66323971 12.69923212 12.69923212 0 0 1-8.54756035-3.41902369l-85.71981565-80.59128052a125.03859217 125.03859217 0 0 0-176.56816875 0l-9.28020767 9.28020845 184.87151229 185.11572833a195.37280013 195.37280013 0 0 0 276.45251194-0.24421603zM190.97806723 255.66449178000005a41.51672003 41.51672003 0 0 0 0 58.85605599l103.79180047 104.03601652a41.51672003 41.51672003 0 0 0 29.55013601 12.21080005A41.76093607 41.76093607 0 0 0 366.08093979 388.76221223a41.272504 41.272504 0 0 0-12.21080007-29.55013601l-104.03601572-103.54758444a42.24936814 42.24936814 0 0 0-58.85605678 0z m76.92804081-77.17225609a41.76093607 41.76093607 0 0 0 0 59.10027203l104.03601575 104.03601651a41.76093607 41.76093607 0 0 0 59.10027202-59.10027202L326.76216403 178.49223570000004a43.22623225 43.22623225 0 0 0-58.85605599-1e-8z m76.43960799-76.43960797a41.76093607 41.76093607 0 0 0 0 59.10027202L448.87016383 265.18891548a41.76093607 41.76093607 0 0 0 59.10027202 0 42.24936814 42.24936814 0 0 0 0-59.10027203l-104.03601573-104.03601573a42.24936814 42.24936814 0 0 0-59.58870409 0z m136.02831207-76.92804005a43.22623225 43.22623225 0 0 0-59.10027203 0 42.24936814 42.24936814 0 0 0 0 59.10027202l104.03601575 104.03601575a41.76093607 41.76093607 0 0 0 59.10027202-59.10027202l-48.84319946-48.84319946z m153.8560801 68.86891176a38.3419124 38.3419124 0 0 0-11.47815197-27.84062378 40.53985591 40.53985591 0 0 0-55.92546438 0L561.20952388 71.28141154000002l40.53985591 40.29563989a71.79950414 71.79950414 0 0 1 12.69923213 18.5604161l8.30334431-8.30334353a38.58612842 38.58612842 0 0 0 11.47815197-27.84062457z m210.0257605 193.41907264a40.78407194 40.78407194 0 0 0-56.16968041 1e-8l-92.06943172 92.06943172a11.722368 11.722368 0 0 1-17.0951207 0 12.21080005 12.21080005 0 0 1 0-17.33933596l92.06943249-91.82521569a39.80720781 39.80720781 0 0 0-56.1696804-56.16968041l-92.06943173 92.06943249a13.92031228 13.92031228 0 0 1-18.5604161-1.4652962 12.21080005 12.21080005 0 0 1 0-17.33933595l92.06943247-91.82521645a40.29563988 40.29563988 0 0 0 11.47815196-28.08483983 39.56299178 39.56299178 0 0 0-11.47815196-28.08483981 40.05142385 40.05142385 0 0 0-56.16968041 0l-19.04884818 19.0488474a66.18253619 66.18253619 0 0 1-78.14912021 65.20567205 66.18253619 66.18253619 0 0 1-76.43960797 77.17225608 65.4498881 65.4498881 0 0 1-76.92804005 76.19539272A66.18253619 66.18253619 0 0 1 277.91896381 435.89590024l-42.0051521-41.76093607-37.85348033 41.76093607a192.44220852 192.44220852 0 0 0 12.69923213 255.20572025l8.30334431 8.30334355a191.22112836 191.22112836 0 0 0 268.63760046 0l6.59383133-6.59383133L326.76216403 523.8136601900001a9.5244237 9.5244237 0 0 1-2.44216031-1.95372827 12.21080005 12.21080005 0 0 1 0-17.33933595l18.07198405-18.31620008a149.46019229 149.46019229 0 0 1 210.7584086 0l76.92804005 73.26480033 214.91008038-214.66586434a40.05142385 40.05142385 0 0 0 10.74550386-29.30591998 40.29563988 40.29563988 0 0 0-11.47815197-28.08483982z"  horiz-adv-x="1024" />

    
    <glyph glyph-name="shuaxin" unicode="&#58892;" d="M658.05246582 533.7202239999999c-0.05438232-0.05438232-0.10126648-0.1004425-0.15647278-0.15647278C656.28372193 531.9515625 656.44019471 532.10803528 658.05246582 533.7202239999999zM838.11975708 713.78084107c-6.19974976-6.19950256-31.16593323-31.16469727-60.67930297-60.67674867C711.64105529 723.69803467 617.83599549 767.84552307 513.71633911 767.84552307c-199.07004089 0-360.44917602-161.36982422-360.44917602-360.43401489 0-199.0600708 161.37822876-360.43154297 360.44917602-360.43154297 122.90743103 0 231.4374939 61.52074585 296.49992981 155.43877258 6.12073059 6.45888977 9.88225708 15.17637635 9.88225708 24.77741089 0 19.90689698-16.13713073 36.04501648-36.04493408 36.04501648-12.20355835 0-22.98419495-6.0718689-29.5050476-15.35344849l-0.41668397 0.26021119c-51.64351502-77.79473877-140.03852234-129.08287354-240.41469727-129.08287354-159.25707092 0-288.35930786 129.0968811-288.35930785 288.34554748 0 159.25039673 129.10231934 288.34884338 288.35930785 288.34884339 84.212677 0 159.98991394-36.10351867 212.7097046-93.67017517-33.02119446-33.0197937-62.02229919-62.01974487-68.37357789-68.36986999 16.50198669 16.48394165-33.12328492-36.19572143-0.15647278-36.19572144 33.07475281 0 180.22458802 0 180.22458802 0 19.90772094 0 36.04493408 16.13482361 36.04493408 36.04007263 0 0 0 152.95531311 0 180.21700745C874.16469117 746.38889466 856.27356568 731.93382568 838.11975708 713.78084107z"  horiz-adv-x="1000" />

    
    <glyph glyph-name="shaixuan" unicode="&#58899;" d="M667.48400879 106.65014647999999h248.6755371c9.80529786 0 17.79785156-7.91015625 17.79785158-17.79785156s-7.99255372-17.79785156-17.79785157-17.79785156H667.48400879c-9.80529786 0-17.79785156 7.91015625-17.79785157 17.79785156s7.99255372 17.79785156 17.79785156 17.79785156zM667.48400879 213.19006347000004h248.6755371c9.80529786 0 17.79785156-7.91015625 17.79785158-17.79785155s-7.99255372-17.79785156-17.79785157-17.79785156H667.48400879c-9.80529786 0-17.79785156 7.91015625-17.79785157 17.79785156s7.99255372 17.79785156 17.79785156 17.79785156zM667.48400879 319.72998047h248.6755371c9.80529786 0 17.79785156-7.91015625 17.79785158-17.79785156s-7.99255372-17.79785156-17.79785157-17.79785157H667.48400879c-9.80529786 0-17.79785156 7.91015625-17.79785157 17.79785157s7.99255372 17.79785156 17.79785156 17.79785156zM818.60095215 746.05444336h-692.96264648c-8.73413086 0-17.22106934-3.29589844-23.73046875-9.14611817-14.58435059-13.10119629-15.73791504-35.59570313-2.63671875-50.18005371l266.30859375-295.97167968v-262.10632325c0-13.51318359 7.58056641-25.79040528 19.6105957-31.80541991l142.05322266-71.02661134c4.94384766-2.47192383 10.38208008-3.7902832 15.90270995-3.7902832 19.6105957 0 35.51330567 15.90270997 35.51330567 35.51330567V390.7565918l266.30859375 296.05407715c5.93261719 6.50939942 9.14611817 14.99633789 9.14611816 23.73046874 0 19.6105957-15.90270997 35.51330567-35.51330566 35.51330567zM543.14624023 404.43457031v-346.89331054L401.09301758 128.56787109000004V404.43457031L125.63830566 710.45874023h692.96264648L543.14624023 404.43457031z"  horiz-adv-x="1024" />

    
    <glyph glyph-name="xiaoxi" unicode="&#59005;" d="M505.23428532 864c-51.90857156 0-94.32-41.76-94.32-92.84571469v-23.21142842C292.8 712.45714313 198.51428532 600.8571431299999 198.51428532 469.44V260.57142844s-5.55428531-69.6-47.17714218-69.6c-27.97714313 0-70.76571469-27.08571469-70.7657147-69.66857157 0-42.51428531 46.25142844-69.6 70.7657147-69.6h707.69142843c24.51428531 0 70.76571469 19.33714313 70.76571375 69.6 0 50.29714313-41.96571469 69.63428531-70.76571375 69.63428626-41.72571469 0-47.14285687 69.63428531-47.14285688 69.63428531v208.86857156c0 131.41714313-70.76571469 243.01714311-212.29714312 278.50285689v23.21142842C599.58857157 822.24 557.14285687 864 505.23428532 864z m0-36.92571469c26.74285689 0 48.48-21.36 48.48-47.65714218v-23.79428624c0-21.73714311 15.08571469-40.76571469 36.44571468-46.14857158 115.44-28.93714313 181.57714311-116.29714313 181.57714311-239.72571375v-214.38857156c0-1.16571469 0-2.43428531 0.13714221-3.6 4.49142844-57.46285687 36.10285687-115.50857156 96.78857155-115.50857156 4.01142844 0 24.20571469-1.16571469 24.2057147-23.82857155 0-21.80571469-24-23.79428531-24.2057147-23.79428533H142.8c-6.30857156 0.92571469-25.30285687 11.65714313-25.30285689 23.79428533 0 14.26285687 19.13142844 23.58857156 24.24 23.82857155 60.54857156 0 92.22857156 57.94285687 96.78857158 115.37142845 0.10285687 1.30285687 0.10285687 2.46857156 0.10285688 3.77142842V469.71428531c0 107.21142844 77.31428531 208.32 183.84 240.34285782a47.65714313 47.65714313 0 0 1 34.32 45.53142843v23.79428533c0 26.29714313 21.73714311 47.65714313 48.44571375 47.65714311zM606 582.65142844a23.86285689 23.86285689 0 0 0-16.83428531 6.96c-19.92 19.06285687-52.38857156 38.84571469-52.73142937 39.08571469-12.10285687 7.44-16.38857156 23.93142844-9.46285688 37.02857156 6.92571469 12.92571469 22.35428531 17.52 34.56 10.11428531 1.54285689-0.96 37.54285687-22.97142844 61.4057147-45.84 10.45714311-10.01142844 11.31428531-27.08571469 1.98857155-38.29714313a24.72 24.72 0 0 0-18.92571469-9.05142843z m109.95428532-346.35428531c-0.68571469 0-1.44 0-2.09142842 0.13714218-13.98857156 1.16571469-24.34285687 14.22857156-23.24571376 29.21142938 0.13714313 1.16571469 8.70857156 115.78285687 0.24 170.70857062-7.71428531 50.16-54.72 106.11428531-55.13142845 106.69714313a28.52571469 28.52571469 0 0 0 1.71428531 38.29714312 24.20571469 24.20571469 0 0 0 35.79428532-1.88571469c2.33142844-2.70857156 57.46285687-68.33142844 67.57714312-134.4 9.46285687-61.50857156 0.68571469-178.97142844 0.24-183.90857156-1.02857156-14.12571469-12.10285687-24.85714313-25.09714312-24.85714218zM507.90857157-96c-88.04571469 0-154.62857156 63.94285687-165.80571467 123.29142844-1.88571469 9.77142844 2.4 22.62857156 13.8171431 24.24 11.38285687 1.54285689 25.71428531-8.57142844 27.56571469-18.48 8.46857156-44.84571469 60.44571469-93.01714313 124.42285688-93.01714313 63.94285687 0 115.88571469 48.03428531 124.38857157 93.01714313 1.88571469 9.77142844 12.68571469 20.02285687 24.06857155 18.51428625 11.41714313-1.68 19.2-14.4 17.34857063-24.27428625C662.4-31.954285310000046 595.88571469-96 507.90857157-96z"  horiz-adv-x="1024" />

    
    <glyph glyph-name="houtaifuwu" unicode="&#58919;" d="M968.35516844 43.71379558000001L157.05709172 43.71379558000001C134.64498183 43.71379558000001 116.4921875 61.866589910000016 116.4921875 84.27869902999998L116.4921875 652.18735274C116.4921875 674.5994626199999 134.64498183 692.7522569600001 157.05709172 692.7522569600001L968.35516844 692.7522569600001C990.76727757 692.7522569600001 1008.92007189 674.5994626199999 1008.92007189 652.18735274L1008.92007189 84.27869902999998C1008.92007189 61.866589910000016 990.76727757 43.71379558000001 968.35516844 43.71379558000001ZM927.79026422 581.1987717100001C927.79026422 597.99264134 914.16045706 611.6224492900001 897.36658663 611.6224492900001L228.04567275 611.6224492900001C211.25180311 611.6224492900001 197.62199517 597.99264134 197.62199517 581.1987717100001L197.62199517 175.54973255000004C197.62199517 158.7558629 211.25180311 145.12605498000005 228.04567275 145.12605498000005L897.36658663 145.12605498000005C914.16045706 145.12605498000005 927.79026422 158.7558629 927.79026422 175.54973255000004L927.79026422 581.1987717100001ZM420.72896646-17.133560370000055L704.68329294-17.133560370000055C727.09540282-17.133560370000055 745.24819716-35.28635469999995 745.24819716-57.69846382000003 745.24819716-80.09029080000005 727.09540282-98.26336804000005 704.68329294-98.26336804000005L420.72896646-98.26336804000005C398.31685735-98.26336804000005 380.16406225-80.09029080000005 380.16406225-57.69846382000003 380.16406225-35.28635469999995 398.31685735-17.133560370000055 420.72896646-17.133560370000055Z"  horiz-adv-x="1156" />

    
    <glyph glyph-name="xuesheng" unicode="&#58950;" d="M511.37273862 805.875L95.67598676 654.92701511 251.54214673 598.37911176v-94.38342902c0-13.48334665 9.93071585-26.96669412 26.64473675-39.65069888-0.20538638-3.55263162-0.66611838-7.0497529-0.66611837-10.6689971 0-83.98643088 38.59601138-157.18174338 112.01891391-196.29399628-118.60793564-40.3778779-192.26953125-133.91755774-211.27055878-252.59765626h0.01110141a34.19407864 34.19407864 0 0 1-0.66611838-6.69449047c0-13.43338825 4.80715439-29.109375 22.43708899-30.80797723 17.79646399-1.70970364 27.79379078 10.43585513 30.43606064 27.76603683 21.68770551 141.92763162 136.69860223 225.53659561 282.60074048 225.53659479 173.62376614 0 256.40008237-90.31455588 278.75390625-225.55324814 0.55509851-3.34169412 0.92146399-6.64453125 2.05941577-9.69757388v-0.01665335h0.01110223c4.83490915-13.00041101 13.99958899-24.10793564 29.53125-22.27055878 16.09786176 1.90953973 22.35382388 11.07421875 22.35382388 29.96422641 0 3.66365149-0.58285328 7.18852835-1.65419412 10.50246771-20.1611846 117.0703125-93.57853601 213.91837976-210.9375 253.86883236 73.42290335 39.04564114 112.01891474 112.24095364 112.01891474 196.22738453 0 3.48601987-0.39412024 6.77220364-0.59950663 10.18606064 16.64740915 12.68955588 26.578125 26.3671875 26.578125 40.18914487V598.3180511200001l103.91447352 37.76891473 25.97306808 9.38116763 25.98416867 9.46443192L511.37273862 805.875z m0-532.90028787c-95.82668564 0-174.61184189 70.63630774-183.73766474 161.15069888 49.88671875-19.88918564 120.49527173-43.9638154 187.14597062-43.9638154 66.72286176 0 130.4481904 23.73601987 180.32935885 43.49753229C685.71258237 343.40008236999995 606.99403787 272.98026325 511.37273862 272.98026325z m202.98848675 244.0546875c0-6.328125-21.84313349-14.4325654-34.33840438-22.83675952 0 0-3.835732-2.80324814-9.2701486-5.71751697-35.02672724-20.10012314-96.87582202-39.95045261-159.44654553-39.95045178-62.45970364 0-124.30324814 20.51644702-159.34107761 40.56106064-4.56846213 2.49794412-8.40974524 5.11245923-8.40974523 5.1124584-13.09477835 8.59292798-31.91817426 16.80838824-31.91817426 22.83676035V571.17927649l199.7189555-68.51027939 202.98848677 68.51027939v-54.14432575h0.01665334z m-203.27713824 42.03762314L233.44592902 654.99917797 511.08408713 751.7750823700001l279.08696585-96.7759044-279.08696585-95.9321552z"  horiz-adv-x="1024" />

    
    <glyph glyph-name="yongjin" unicode="&#58906;" d="M134.838 532.667c-9.947 0-18.059 8.08-18.059 18.059V661.551c0 9.983 8.112 18.059 18.059 18.059 10.015 0 18.059-8.076 18.059-18.059v-110.825c0-9.979-8.043-18.059-18.059-18.059zM51.456 380.259c-9.947 0-18.059 8.076-18.059 18.059V509.143c0 9.979 8.112 18.059 18.059 18.059 10.015 0 18.059-8.08 18.059-18.059v-110.825c-0.001-9.983-8.044-18.059-18.059-18.059z m83.382-185.528c-9.947 0-18.059 8.076-18.059 18.059v97.173c0 9.983 8.112 18.059 18.059 18.059 10.015 0 18.059-8.076 18.059-18.059v-97.173c0-9.983-8.043-18.059-18.059-18.059z m284.713 238.611c-146.731 0-302.773 41.128-302.773 117.384 0 9.983 8.112 18.059 18.059 18.059 10.015 0 18.059-8.076 18.059-18.059 0-33.93 101.441-81.266 266.654-81.266 16.579 0 32.803 0.495 48.604 1.448 9.806 0.917 18.482-6.985 19.117-16.933 0.564-9.947-6.985-18.518-16.929-19.117-16.509-1.021-33.438-1.517-50.793-1.517z m-83.383-152.408c-146.731 0-302.773 41.128-302.773 117.384 0 9.983 8.112 18.059 18.059 18.059 10.015 0 18.059-8.076 18.059-18.059 0-33.93 101.441-81.266 266.654-81.266 21.797 0 43.454 0.881 64.406 2.576 9.665 0.777 18.695-6.595 19.471-16.506 0.845-9.947-6.562-18.659-16.51-19.471-21.938-1.799-44.58-2.717-67.367-2.717z m83.383 264.574c-146.731 0-302.773 41.128-302.773 117.384s156.042 117.42 302.773 117.42c146.802 0 302.844-41.164 302.844-117.42S566.353 545.508 419.551 545.508z m0 198.687c-165.212 0-266.654-47.369-266.654-81.303s101.441-81.266 266.654-81.266c165.284 0 266.727 47.333 266.727 81.266s-101.442 81.303-266.727 81.303z m284.786-199.958c-10.019 0-18.059 8.08-18.059 18.059v99.257c0 9.983 8.04 18.059 18.059 18.059 9.947 0 18.059-8.076 18.059-18.059v-99.257c0-9.98-8.112-18.059-18.059-18.059zM398.74 217.904h-0.491c-133.894 3.421-240.555 36.964-271.663 85.499-5.432 8.394-2.966 19.576 5.432 24.972 8.322 5.396 19.54 2.961 24.972-5.432 20.317-31.708 110.045-65.569 242.177-68.921 10.016-0.246 17.846-8.534 17.633-18.518-0.281-9.807-8.322-17.601-18.058-17.601z m34.569-112.306c-155.619 0-316.53 43.844-316.53 117.243 0 9.983 8.112 18.059 18.059 18.059 10.015 0 18.059-8.076 18.059-18.059 0-32.308 111.812-81.126 280.411-81.126 9.947 0 18.059-8.076 18.059-18.059s-8.112-18.058-18.059-18.058zM336.168 393.1c-146.731 0-302.773 41.125-302.773 117.384 0 24.442 16.365 59.36 94.106 86.839 9.239 3.348 19.75-1.589 23.065-11.041 3.316-9.384-1.622-19.717-11.074-23.033-43.172-15.238-69.979-35.446-69.979-52.765 0-33.933 101.441-81.266 266.654-81.266 32.734 0 64.688 1.939 95.023 5.783 9.806 1.34 18.905-5.714 20.176-15.661 1.268-9.875-5.714-18.905-15.661-20.176-31.816-4.021-65.254-6.065-99.538-6.065z m351.66-423.471c-166.975 0-302.841 135.83-302.841 302.809 0 166.942 135.866 302.773 302.841 302.773 166.978 0 302.776-135.83 302.776-302.773 0-166.978-135.798-302.809-302.776-302.809z m0 569.463c-147.081 0-266.723-119.606-266.723-266.654s119.642-266.69 266.723-266.69c147.016 0 266.657 119.642 266.657 266.69S834.843 539.092 687.828 539.092z m-59.074-314.914h37.684v24.028h-37.684c-15.801 0-23.664 5.228-23.664 15.684 0 10.248 7.863 15.398 23.664 15.398h21.314l-49.92 78.285c-4.054 6.24-6.647 10.739-7.942 13.369-1.216 2.676-1.785 5.634-1.785 8.834 0 5.838 1.701 10.456 5.27 13.979 3.481 3.485 8.021 5.27 13.531 5.27 5.755 0 10.294-1.743 13.78-5.186 3.564-3.443 7.619-9.037 12.315-16.655l53.974-84.567 48.219 79.704c1.863 3.083 3.73 6.365 5.672 9.767 2.029 3.361 3.97 6.282 5.838 8.673 1.942 2.39 4.295 4.336 7.128 5.955 2.838 1.539 6.24 2.312 10.133 2.312 5.511 0 10.05-1.701 13.614-5.066 3.485-3.443 5.27-7.577 5.27-12.481 0-3.888-0.731-7.452-2.108-10.697-1.46-3.241-3.568-7.29-6.647-12.154l-48.058-79.339h21.232c15.643 0 23.501-5.149 23.501-15.398 0-10.456-7.859-15.684-23.501-15.684h-37.763v-24.028h37.763c15.643 0 23.501-5.266 23.501-15.722 0-10.212-7.859-15.357-23.501-15.357h-37.763v-13.332c0-22.651-7.54-33.953-22.531-33.953-15.236 0-22.855 11.302-22.855 33.953v13.332h-37.683c-15.801 0-23.664 5.145-23.664 15.357 0.001 10.453 7.864 15.719 23.664 15.719z"  horiz-adv-x="1024" />

    
    <glyph glyph-name="yingxiao" unicode="&#58907;" d="M688.0256 469.3504v-423.9872h237.312V466.688l-101.3248 133.12z m186.112-372.7872h-134.912V447.5392l78.848 75.7248 56.32-73.8304zM101.3248 45.312h237.3632V426.6496l-64.9728 45.3632-172.3904-146.688z m51.2 256.3584l124.3136 105.728 10.6496-7.424v-303.4624H152.5248zM394.6496 45.312h237.312v378.88L517.12 327.9872l-122.88 66.56z m51.2 263.2192l47.0016-25.6 30.72-16.6912 26.7264 22.4768 30.72 25.6v-217.9584h-135.168zM140.544 431.4624l129.0752 107.9808L516.1984 389.12l292.4032 275.4048a31.744 31.744 0 0 1 2.816 3.2256l49.2544-49.8176 79.3088 223.1808L712.448 768l54.4256-55.0912c-0.7168-0.5632-1.4848-1.024-2.1504-1.6896L507.8016 469.3504l-244.0704 148.48-164.2496-137.2672a32 32 0 1 1 40.96-49.1008zM920.0128 1.3312H99.9936a32 32 0 0 1 0-64h820.0192a32 32 0 0 1 0 64z"  horiz-adv-x="1024" />

    
    <glyph glyph-name="shuju" unicode="&#58908;" d="M420.096 805.76h180.032v-663.552H420.096V805.76zM180.224 498.368h179.968v-356.16H180.224v356.16z m479.808 118.976h180.032v-475.2H660.032v475.2zM64 79.36h896v-117.12H64V79.36z m421.76 657.024h114.368v-594.24H485.76v594.24zM245.824 430.848h114.368v-288.704H245.824V430.848zM725.696 554.56h114.368v-412.352H725.696V554.56zM123.072 20.352H960v-58.112H123.072v58.112z"  horiz-adv-x="1024" />

    
    <glyph glyph-name="faqi" unicode="&#59135;" d="M926.72 801.28H94.72V-30.72l384 0.512v64l-320-0.512V737.28h704v-128H926.72V801.28zM222.72 545.28h384V608.768h-384v-63.488z m0-128H542.72V481.28H222.72v-64z m0-128.512H414.72v64H222.72v-64zM798.72 497.152l-32.256 50.176-31.744-50.176V97.28H798.72V497.152zM734.72 417.28l31.744 130.56-159.744-194.56v-87.04l128 151.04z m64 0l128-150.528V353.28l-160.256 194.56 32.256-130.56z m-192-383.488H926.72v-64h-320v64z"  horiz-adv-x="1024" />

    
    <glyph glyph-name="tuichu-" unicode="&#59058;" d="M571.71343994 161.95444743999997h-7.71240234c-80.58883667 0-161.17520141-0.00823974-241.76568604 0-11.94763184 0.00411987-19.7341919 5.47943115-21.65405273 15.27648926-0.37738037 1.95693969-0.34194946 4.01275635-0.34194946 6.01501465-0.01483154 71.61575317-0.0164795 143.22738648-0.0098877 214.84231567 0.00247192 13.58322143 7.35809326 20.80947876 21.15307617 20.80947877 80.95303344 0.00411987 161.90853882 0.00411987 242.86651612 0.00411987h7.46520995v6.51928711c0 63.73608398-0.00823974 127.47711182 0.00823976 191.21896362 0 8.77120972 4.18084717 15.76675415 11.2637329 18.44631958 8.14910888 3.08578492 15.37866211 1.66442872 21.5222168-4.82601929 3.52166748-3.72189331 7.35809326-7.14550781 10.97534179-10.76522828 45.63500977-45.53695679 91.26342773-91.09451294 136.88690186-136.63146972 58.60107422-58.47335815 117.20544433-116.93188477 175.80651855-175.40277099 9.75585938-9.72454834 9.80941773-19.98303222 0.1689148-29.6029358-83.86413575-83.71994018-167.71920776-167.44729614-251.60806274-251.13427734-23.85818482-23.80050659-47.8440857-47.45681763-71.68167115-71.27792358-6.13449097-6.13861084-12.9776001-8.82888794-21.353302-5.64834595-8.14498901 3.08990479-11.98059083 9.50042724-11.98059081 19.58175659-0.01235962 61.71981812-0.00823974 123.44787598-0.00823976 185.16687012v7.40835571zM421.06863403 633.05863446v-72.36721802h-6.6494751c-61.35726929 0-122.71453857 0.00823974-184.07098388-0.00411988-38.88088989-0.00576782-67.51235962-28.69656372-67.51400757-67.65408325-0.00576782-134.80389404 0.24142456-269.60614013-0.162323-404.39932251-0.11123657-35.66574097 27.02224732-61.36138916 52.1081543-66.05392456 5.54287719-1.02584839 11.26950073-1.49139404 16.91207885-1.50375366 60.80685425-0.1071167 121.61618042-0.06591797 182.42550659-0.06591797h6.84063721v-71.95358277c-0.86517334-0.17303467-1.87454224-0.56030273-2.88638305-0.56030273-64.65481568 0-129.31622315-0.65917969-193.95455932 0.28015137-63.1741333 0.90637207-119.1178894 48.84933472-131.17428589 110.90286255-1.70150757 8.7423706-2.53372193 17.79373169-2.54360963 26.70089722-0.15655518 136.27304077-0.51663208 272.53948974 0.08404542 408.80181885 0.25131226 56.91769409 28.53012085 97.77694702 77.91503906 124.33117675 17.42294312 9.37271118 36.66851807 13.60546875 56.50570679 13.65490723 64.10275268 0.17303467 128.20632935 0.06591797 192.31072998 0.0617981 1.08352661-0.00082398 2.1645813-0.09558106 3.85372924-0.17138672z"  horiz-adv-x="1027" />

    
    <glyph glyph-name="mima1" unicode="&#58891;" d="M544 220.562c19.13 11.066 32 31.749 32 55.438 0 35.346-28.654 64-64 64-35.346 0-64-28.654-64-64 0-23.689 12.87-44.372 32-55.438V116h64V220.562zM272 512v80c0 132.548 107.452 240 240 240s240-107.452 240-240v-80h76c35.346 0 64-28.654 64-64v-448c0-35.346-28.654-64-64-64H196c-35.346 0-64 28.654-64 64V448c0 35.346 28.654 64 64 64h76z m80 0h320v80c0 88.366-71.634 160-160 160s-160-71.634-160-160v-80z"  horiz-adv-x="1024" />

    
    <glyph glyph-name="user" unicode="&#59081;" d="M509.226667 652.757333a132.053333 132.053333 0 1 1 0-264.106666 132.053333 132.053333 0 0 1 0 264.106666z m-0.085334 186.965334c-247.424 0-448-200.576-448-448s200.576-448 448-448 448 200.576 448 448c0 247.381333-200.576 448-448 448z m231.168-715.221334c-9.642667 1.109333-19.925333 16.512-19.925333 16.512-17.578667 112.512-105.301333 198.101333-211.2 198.101334s-193.664-85.589333-211.2-198.101334c0 0-4.053333-15.189333-19.925333-16.512-37.034667-3.072-32.554667 16.512-32.554667 16.512 3.413333 103.253333 69.802667 191.104 163.285333 228.437334a181.546667 181.546667 0 1 0 200.832 0c93.482667-37.290667 159.872-125.184 163.285334-228.437334 0 0-2.304-19.968-32.597334-16.512z"  horiz-adv-x="1024" />

    
    <glyph glyph-name="yanzhengma" unicode="&#59043;" d="M511.14306641-66a23.14248047 23.14248047 0 0 0-6.40722657 0.92109375c-14.82890625 4.41474609-363.23613281 111.30029297-363.23613281 407.85029297V722.89306641a22.5 22.5 0 0 0 23.57226563 22.47802734c66.55693359-3.12890625 146.39941406 10.37109375 225.9421875 38.33613281a725.52832031 725.52832031 0 0 1 106.97167968 47.52861328 22.58613281 22.58613281 0 0 0 21.6 0 725.03613281 725.03613281 0 0 1 107.01386719-47.52861328c81.02197266-28.52138672 165.45058594-42.36416016 231.94335938-38.07861328a22.28554687 22.28554687 0 0 0 16.86445312-6.04248047 22.54746094 22.54746094 0 0 0 7.07080078-16.41445312v-380.37919922c0-287.78554688-349.58496094-402.96357422-364.47802734-407.7a21.44970703 21.44970703 0 0 0-6.85722656-1.09248047zM186.54277344 699.92109375v-356.93525391c0-241.99277344 277.52167969-346.77861328 324.38583984-362.72197265 47.01445313 16.99365234 326.54970703 127.97226562 326.54970703 362.50751953v357.06445312c-68.14248047-0.66445312-147.32138672 13.77861328-225.83496094 41.4a775.43613281 775.43613281 0 0 0-102.83642578 44.70029297 771.42832031 771.42832031 0 0 0-102.83554687-44.70117187c-75.98583984-26.72050781-151.80029297-40.9921875-219.42773438-41.31386719zM467.42890625 270.94277344a22.43847656 22.43847656 0 0 0-15.27890625 5.97832031l-118.41503906 109.54335937a22.5 22.5 0 0 0 30.57890625 33.06445313L467.42890625 324.12890625 691.95605469 532.0078125a22.56416016 22.56416016 0 0 0 31.84277344-1.22167969 22.54306641 22.54306641 0 0 0-1.26386719-31.82167969L482.75 276.92109374999995a22.54306641 22.54306641 0 0 0-15.32109375-5.97832031z"  horiz-adv-x="1024" />

    
    <glyph glyph-name="105" unicode="&#58890;" d="M741.824 847.99999969L282.24000031 847.99999969c-49.248 0-89.28-39.19999969-89.28-87.36l0-753.28000031c0-48.192 40.032-87.36 89.28-87.36l459.552 0c49.18399969 0 89.21599969 39.19999969 89.21599969 87.36L831.008 760.6720003099999C831.03999969 808.83199969 791.00799969 847.99999969 741.824 847.99999969zM587.80800031-18.55999969000004l-151.61599969 0 0 29.11999969 151.61599969 0L587.80800031-18.55999969000004zM736.03200031 731.07199969l0-624.41599969 0-29.11999969-29.11999968 0L317.08800031 77.53600030999996l-29.11999969 0 0 29.11999969L287.96799969 731.07199969 287.96799969 760.15999969l29.11999968 0 389.82400032 0 29.11999969 0L736.03200031 731.07199969z"  horiz-adv-x="1024" />

    
    <glyph glyph-name="mima" unicode="&#58976;" d="M515.3197937 143.23214722c-16.62368774 0-30.11380005 13.45962524-30.11380005 30.1121521L485.20599365 263.67251587c0 16.65252685 13.49011231 30.12039185 30.11380005 30.12039184 16.61956787 0 30.10803223-13.46786499 30.10803223-30.12039184l0-90.32821655C545.42782593 156.69177246000004 531.93936157 143.23214722 515.3197937 143.23214722zM816.4281311-37.43994140999996L214.2048645-37.43994140999996c-49.80267334 0-90.3298645 40.53955078-90.3298645 90.34881592L123.875 384.11453247c0 49.81091308 40.52719117 90.3364563 90.3298645 90.3364563l602.2232666 0c49.80514526 0 90.33233643-40.52471924 90.33233643-90.3364563l0-331.20565796C906.75964355 3.099609370000053 866.23327637-37.43994140999996 816.4281311-37.43994140999996zM214.2048645 414.22833252c-16.58660888 0-30.10556031-13.51895141-30.1055603-30.11380005l0-331.20565796c0-16.62780762 13.51895141-30.12451172 30.1055603-30.12451172l602.2232666 0c16.61132813 0 30.10803223 13.49670411 30.10803223 30.12451172L846.53616333 384.11453247c0 16.59484864-13.49670411 30.11380005-30.10803223 30.11380005L214.2048645 414.22833252zM726.08343506 414.22833252c-16.64016724 0-30.10391235 13.49011231-30.10391235 30.1121521L695.97952271 566.65292359c0 102.34176636-96.20315552 178.79754638-182.22940064 178.79754638-88.04580688 0-179.102417-66.72546387-179.10241699-178.37979126l0-122.73101806c0-16.62121582-13.48187256-30.1121521-30.10803223-30.11215211-16.62121582 0-30.10803223 13.49011231-30.10803222 30.11215211l0 122.73101806c0 149.34951782 121.67633057 238.59997558 239.31848144 238.59997559 114.69314575 0 242.45370484-98.16421508 242.45370483-239.01773071l0-122.3083191C756.2038269 427.7192688 742.73596192 414.22833252 726.08343506 414.22833252z"  horiz-adv-x="1024" />

    
    <glyph glyph-name="vip" unicode="&#59026;" d="M268.1959826 789.62337261h491.92661447c34.4305755-13.11108362 67.38848427-28.72632206 88.87574832-60.49118435 45.80179968-67.70538723 91.52903395-135.46048475 136.46090391-203.7313263 25.86798156-39.32082327 21.6177535-72.74476581-11.17859687-106.60367321-138.92156226-143.4451968-277.75613155-286.97738657-417.00702437-430.09946663-6.57418316-6.75438288-16.32982357-11.77512012-25.51379588-14.3724817-28.46534315-8.02820854-49.51764234 5.56133642-68.60017209 25.2776721-121.88336735 125.95960946-244.33840279 251.36619216-365.79301908 377.72969756-23.97277753 24.94212779-44.4223397 53.26455391-66.49991319 80.02732032v38.83614816c9.56301312 16.54109221 18.11939328 33.77812821 28.87545287 49.49900098 38.69323113 56.5827144 79.25681115 111.91645829 116.85641633 169.20754403 23.07177889 35.17001577 50.43106853 62.82135325 91.59738558 74.72074904z m-11.35879661-261.20882555c59.26706896 11.45821715 84.3459-23.22712349 98.58167846-72.06124962 0.79536432-2.72163726 2.31152754-5.23821966 3.38651212-7.8915053 35.94052494-88.19844589 71.95561529-176.37203664 107.69108537-264.65126172 4.04517319-9.99797797 8.12762909-18.21881381 21.17036108-15.64630737 12.58912578 2.47308592 27.49599289-6.59903829 35.71061494 13.52740713 13.77595847 33.75948686 30.05607178 66.59933374 47.06941155 98.88615385a14152.57590139 14152.57590139 0 0 0 115.12898446 213.67338023c11.35258283 20.6670446 29.96907881 32.31788905 54.15933878 34.10745875 7.59324368 0.56545431 15.0994944 2.21832078 23.43217834 3.49214643l3.06960914 42.64519757h-206.47781868v-48.28731316c13.67032415-2.54765132 26.76276641-3.56049806 38.64973463-7.88529152 4.77839967-1.73364565 10.97975581-12.02988525 9.63757853-16.24283061-22.99721349-72.37193879-52.75502365-141.86068195-92.35546719-209.7152-28.35970882 67.56247021-55.97376361 132.81341289-83.11557083 198.25698285-9.58165447 23.1090616-7.79208477 27.52084802 16.98227087 31.31125609 19.58584624 2.99504374 27.74454423 11.3650104 24.75571427 31.04406338-1.0314881 6.81652073-0.16155838 13.91266171-0.16155836 21.88494621H256.83718599v-46.44803319z"  horiz-adv-x="1024" />

    
    </font>
</defs>
</svg>
